<?xml version="1.0" encoding="UTF-8"?>
<svg version="1.1" xmlns="http://www.w3.org/2000/svg" width="1208" height="1783">
<path d="M0 0 C1.84067551 0.00273422 1.84067551 0.00273422 3.71853638 0.00552368 C23.5643863 0.0549969 43.0641412 0.76883568 62.75 3.3125 C64.09097704 3.48051694 65.43196021 3.64848493 66.77294922 3.81640625 C155.48549093 15.11204494 240.27742343 49.62742683 327.83203125 122.578125 C330.47633121 125.05604999 333.16200211 127.47291082 335.875 129.875 C343.3291461 136.56555064 350.44476558 143.60830525 356.94921875 151.23046875 C359.12324202 153.74403578 361.37390488 156.18026229 363.625 158.625 C368.5419433 164.02920795 373.21088689 169.58912579 377.75 175.3125 C378.26578613 175.96105957 378.78157227 176.60961914 379.31298828 177.27783203 C387.8418572 188.0331224 396.01858869 198.97050117 403.75 210.3125 C404.10982971 210.84010925 404.46965942 211.36771851 404.84039307 211.91131592 C416.05934507 228.37830484 426.95822293 244.94527252 436.75 262.3125 C437.23839355 263.17117676 437.72678711 264.02985352 438.22998047 264.91455078 C476.20744051 331.94020946 501.04157064 407.2048438 500.9375 484.75 C500.93689575 485.58532257 500.9362915 486.42064514 500.93566895 487.28128052 C500.87903987 516.21148708 497.32202879 543.62484701 488.75 571.3125 C489.36311035 571.48120605 489.9762207 571.64991211 490.60791016 571.82373047 C508.21295658 576.85806753 528.63159742 586.03865188 538.05859375 602.61328125 C541.75963397 610.6428737 542.18592834 619.07534697 539.25 627.4375 C534.24353827 638.36068924 525.36473501 646.23917869 515.3125 652.5 C511.29456514 655.34195393 509.73994159 658.60593561 508.75 663.3125 C507.5533727 673.78789308 510.34737538 684.9389805 516.75 693.3125 C518.72156511 695.33720144 520.81354084 697.19988435 522.9375 699.0625 C536.95925045 711.74473037 550.33354497 727.06988399 551.953125 746.78515625 C552.26794449 764.17893334 544.99995579 777.52408872 533.75 790.3125 C533.08871094 791.11816406 532.42742187 791.92382812 531.74609375 792.75390625 C522.35986707 803.96049204 510.42107864 810.04501165 496.4375 813.625 C495.43275635 813.88253052 495.43275635 813.88253052 494.40771484 814.14526367 C490.42916989 815.09600796 486.82417711 815.37680453 482.75 815.3125 C482.71334229 816.07079102 482.67668457 816.82908203 482.63891602 817.61035156 C481.97418019 828.8607383 480.36681546 839.92588592 478.6875 851.0625 C478.53416199 852.08528046 478.38082397 853.10806091 478.22283936 854.16183472 C468.63339689 917.8047243 454.96239745 982.23876016 428.75 1041.3125 C428.20448486 1042.55604248 428.20448486 1042.55604248 427.64794922 1043.82470703 C421.42778999 1057.92124694 413.37762899 1068.97203021 403.28759766 1080.54101562 C400.89518819 1083.29733876 398.54047923 1086.08501474 396.1875 1088.875 C395.28260274 1089.94665736 394.37765487 1091.01827198 393.47265625 1092.08984375 C392.80194092 1092.88430908 392.80194092 1092.88430908 392.11767578 1093.69482422 C390.72540583 1095.34158979 389.32994527 1096.98560067 387.93359375 1098.62890625 C383.70146367 1103.61276248 379.49262602 1108.60809272 375.375 1113.6875 C371.20843577 1118.80983524 366.88798719 1123.78667378 362.54956055 1128.76293945 C358.62990046 1133.2691452 354.8236216 1137.85319964 351.06640625 1142.49609375 C347.83624012 1146.42349641 344.51351304 1150.26944256 341.17358398 1154.10375977 C340.23343076 1155.19015548 339.30183149 1156.28402457 338.37979126 1157.38583469 C337.27406349 1158.69297591 336.14365419 1159.97955691 334.99205017 1161.24646664 C329.99572214 1167.06041915 328.54000277 1171.62868522 327.88671875 1179.17602539 C327.76901815 1180.25214742 327.65131756 1181.32826944 327.53005028 1182.43700123 C327.13754397 1186.09234064 326.78815157 1189.75058102 326.4375 1193.41015625 C326.15749207 1196.12924765 325.8680883 1198.84732013 325.57901001 1201.56546021 C324.94253017 1207.59393168 324.32767021 1213.62431215 323.72589111 1219.65634155 C322.7366796 1229.56443293 321.70199335 1239.46753051 320.66162109 1249.37036133 C320.28384388 1252.97144936 319.90643813 1256.57257622 319.52920532 1260.17372131 C319.43253299 1261.09642938 319.33586066 1262.01913745 319.23625886 1262.96980637 C318.51635144 1269.84728396 317.8026181 1276.7253886 317.09115601 1283.60374451 C311.47844185 1337.84348057 305.65501131 1392.06090087 299.83120038 1446.2783066 C297.87646817 1464.47649619 295.92818207 1482.67534216 293.99360676 1500.87568641 C292.55864127 1514.3755983 291.11742773 1527.87482928 289.66965616 1541.37337399 C288.79396801 1549.54023726 287.92373052 1557.70764186 287.06078283 1565.87586134 C286.40753447 1572.0534455 285.74427085 1578.22991656 285.07722092 1584.40602481 C284.80724383 1586.92043241 284.54052105 1589.43519196 284.27734375 1591.95032036 C283.91811928 1595.37883768 283.54713622 1598.80588913 283.17324829 1602.23283386 C283.07296566 1603.21718654 282.97268302 1604.20153922 282.86936152 1605.21572077 C281.55378153 1616.99282104 278.69913717 1626.54568544 269.48266602 1634.48217773 C263.64454358 1638.3925149 256.71676815 1640.16758384 250.0625 1642.25 C248.43836566 1642.77234321 246.81450838 1643.29554863 245.19091797 1643.81958008 C230.82943681 1648.41925818 216.37158443 1652.61642737 201.75 1656.3125 C201.04913269 1656.49018921 200.34826538 1656.66787842 199.62615967 1656.85095215 C151.98181039 1668.89271351 103.77367919 1676.80777686 54.75 1680.3125 C53.48720215 1680.40821289 52.2244043 1680.50392578 50.92333984 1680.60253906 C35.2281265 1681.69393084 19.47530905 1681.55833175 3.75 1681.5625 C2.9856942 1681.56294186 2.2213884 1681.56338371 1.43392181 1681.56383896 C-23.90187776 1681.5715048 -49.03658626 1681.01882932 -74.25 1678.3125 C-75.45456848 1678.18521515 -75.45456848 1678.18521515 -76.68347168 1678.05535889 C-127.25231568 1672.66880274 -177.06372676 1662.38581911 -225.125 1645.625 C-226.13473877 1645.28098145 -227.14447754 1644.93696289 -228.18481445 1644.58251953 C-238.00516112 1641.05204016 -246.06563993 1635.69960376 -250.82154149 1626.16034436 C-252.51930626 1622.05576379 -252.94704152 1618.08399679 -253.29283619 1613.6844902 C-253.36763295 1612.8539781 -253.44242971 1612.023466 -253.51949304 1611.16778687 C-253.76258275 1608.43731745 -253.98889574 1605.70573646 -254.21504211 1602.97381592 C-254.38397025 1601.03710451 -254.5539264 1599.10048252 -254.72485763 1597.16394687 C-255.16245039 1592.17466507 -255.58618763 1587.18431042 -256.00622919 1582.19352424 C-256.37876417 1577.79069062 -256.7634199 1573.38893089 -257.14757347 1568.98709869 C-257.97254916 1559.50026918 -258.7750671 1550.01160031 -259.57406509 1540.52255273 C-259.98507398 1535.64639575 -260.39825051 1530.7704223 -260.81114197 1525.89442444 C-261.5215455 1517.50187645 -262.23071313 1509.10922483 -262.93901634 1500.71649933 C-263.96370907 1488.57530686 -264.99082984 1476.43432065 -266.01856617 1464.29338548 C-267.68800677 1444.5715082 -269.35616484 1424.84952271 -271.02319336 1405.12744141 C-271.12234995 1403.95435762 -271.22150653 1402.78127384 -271.32366786 1401.57264206 C-272.33230376 1389.63967142 -273.3408107 1377.70668988 -274.34926359 1365.77370377 C-274.85546563 1359.7838675 -275.36168654 1353.79403283 -275.86791992 1347.80419922 C-275.96786147 1346.62166892 -276.06780303 1345.43913863 -276.17077311 1344.22077408 C-277.83623483 1324.51523099 -279.50327033 1304.80982136 -281.17147237 1285.10451007 C-282.19743787 1272.98461765 -283.222001 1260.86460824 -284.24474249 1248.74444333 C-284.94327509 1240.46746828 -285.64323378 1232.19061465 -286.34432431 1223.91385588 C-286.74854123 1219.14124863 -287.15208585 1214.36858696 -287.55386353 1209.5957737 C-287.92149285 1205.22874367 -288.29097896 1200.86187487 -288.66194502 1196.49512705 C-288.79579561 1194.91560451 -288.92895936 1193.33602359 -289.06136789 1191.75637951 C-289.24142012 1189.60951906 -289.42397019 1187.46288482 -289.60713482 1185.31628799 C-289.70787074 1184.12411234 -289.80860666 1182.93193669 -289.91239518 1181.7036345 C-290.2673391 1173.95328658 -290.2673391 1173.95328658 -294.375 1167.875 C-296.9328415 1165.53506791 -299.3048835 1163.19549216 -301.5625 1160.5625 C-304.35745842 1157.31734693 -307.22465906 1154.15137508 -310.125 1151 C-313.43336914 1147.37726095 -316.61012358 1143.69557109 -319.6875 1139.875 C-322.90945075 1135.88023566 -326.25677983 1132.06718333 -329.75 1128.3125 C-333.96274442 1123.77993801 -337.93029285 1119.10325263 -341.8125 1114.28515625 C-344.68720071 1110.77931131 -347.64732001 1107.35588358 -350.625 1103.9375 C-358.94432409 1094.3800804 -367.18297993 1084.75693179 -375.140625 1074.89453125 C-376.47429992 1073.26201436 -377.83592615 1071.65160298 -379.234375 1070.07421875 C-420.57926834 1022.19683226 -428.31541923 932.18658026 -441.1171875 872.53515625 C-441.33519012 871.52345871 -441.55319275 870.51176117 -441.77780151 869.46940613 C-441.97342682 868.55016861 -442.16905212 867.63093109 -442.37060547 866.68383789 C-442.54155731 865.8831337 -442.71250916 865.0824295 -442.88864136 864.25746155 C-443.25 862.3125 -443.25 862.3125 -443.25 860.3125 C-443.94448242 860.32821045 -444.63896484 860.3439209 -445.35449219 860.36010742 C-448.56957509 860.42333134 -451.78452652 860.46176391 -455 860.5 C-456.63775391 860.53770508 -456.63775391 860.53770508 -458.30859375 860.57617188 C-471.37324142 860.69213029 -483.79034912 857.82094303 -493.78515625 848.93359375 C-503.67725792 837.98633457 -507.70669564 823.3373251 -511.87207031 809.53219604 C-515.55086165 797.37205403 -519.50431411 785.56131221 -524.65625 773.93359375 C-531.7159134 757.89362324 -529.47075372 743.37254952 -523.4375 727.32421875 C-515.70717828 707.92215861 -504.48382153 690.16914063 -492.25 673.3125 C-491.77739746 672.66120117 -491.30479492 672.00990234 -490.81787109 671.33886719 C-484.67177569 662.92107642 -478.26788779 654.73711704 -471.61376953 646.71484375 C-470.60143853 645.48870283 -469.60223929 644.25156591 -468.6184082 643.00244141 C-467.3791004 641.47193496 -466.02824555 640.03344693 -464.66796875 638.609375 C-462.31560151 633.13995916 -464.72184531 628.62835438 -466.5625 623.1875 C-467.34632243 620.6709471 -468.12018529 618.15405858 -468.875 615.62890625 C-469.07414505 614.96491318 -469.2732901 614.3009201 -469.47846985 613.61680603 C-471.84162416 605.56009575 -473.48884136 597.3667148 -475.0625 589.125 C-475.20855682 588.36095856 -475.35461365 587.59691711 -475.50509644 586.8097229 C-479.71374989 564.54824644 -482.37027804 542.13052763 -482.453125 519.45703125 C-482.46364647 517.52457047 -482.46364647 517.52457047 -482.47438049 515.55307007 C-482.49380658 511.41037509 -482.49881553 507.26773592 -482.5 503.125 C-482.50044186 502.41889713 -482.50088371 501.71279427 -482.50133896 500.98529434 C-482.50846291 479.28008555 -482.09872256 457.86829725 -479.25 436.3125 C-479.07597581 434.93302887 -478.90265605 433.55346872 -478.72998047 432.17382812 C-468.018455 347.5482921 -440.50088161 263.82377171 -363.25 167.3125 C-362.37472656 166.34441406 -361.49945313 165.37632812 -360.59765625 164.37890625 C-352.90707051 155.89442733 -345.07305079 147.58798052 -336.35546875 140.140625 C-333.89272972 138.0022913 -331.51512657 135.78165401 -329.125 133.5625 C-323.39749949 128.34568197 -317.38181991 123.58405436 -311.24658203 118.85888672 C-309.07972911 117.1806223 -306.92784174 115.48432083 -304.77734375 113.78515625 C-296.48536722 107.24893234 -288.15736862 100.99710208 -279.25 95.3125 C-277.9209699 94.44409195 -276.59291138 93.57419585 -275.265625 92.703125 C-260.2936062 82.9007094 -244.98307137 73.83857049 -229.25 65.3125 C-228.39970215 64.84972656 -227.5494043 64.38695313 -226.67333984 63.91015625 C-182.15213945 39.79961074 -134.07380106 22.02912777 -85 9.75 C-84.17836365 9.54371979 -83.35672729 9.33743958 -82.51019287 9.12490845 C-55.04514568 2.28163386 -28.30929211 -0.08757801 0 0 Z M-21.3125 494.3125 C-22.8570949 497.60763579 -22.104977 500.89496146 -21.25 504.3125 C-19.83541368 506.73301436 -18.57237969 508.63174841 -16.8125 510.75 C-16.36438965 511.3056665 -15.9162793 511.86133301 -15.45458984 512.43383789 C-7.88956641 521.59839147 -0.02079383 527.35765251 10.75 532.3125 C18.7812048 536.29763501 26.15633364 541.14031163 33.55712891 546.17431641 C34.3001123 546.67882324 35.0430957 547.18333008 35.80859375 547.703125 C36.47173584 548.15719727 37.13487793 548.61126953 37.81811523 549.07910156 C42.43724148 552.02815069 45.50212617 552.58485326 51.0625 552.5625 C52.33738281 552.56765625 53.61226562 552.5728125 54.92578125 552.578125 C58.89414357 552.30248799 61.99054943 551.53809061 65.75 550.3125 C66.20346816 546.44991645 66.20346816 546.44991645 64.31640625 544.76757812 C59.33477501 541.22799803 54.30381354 538.35566817 48.75 535.8125 C47.93055908 535.42868164 47.11111816 535.04486328 46.2668457 534.64941406 C39.6978899 531.62275991 33.02153741 529.09796956 26.16796875 526.796875 C20.31830695 524.25645045 16.487232 520.28039058 12.625 515.3125 C9.06092157 510.88148358 5.4216312 506.54660801 1.625 502.3125 C1.14659668 501.76078125 0.66819336 501.2090625 0.17529297 500.640625 C-3.7792794 496.28587955 -7.65900586 493.92706611 -13.578125 492.9140625 C-16.39863195 492.94845893 -18.75445031 493.07223349 -21.3125 494.3125 Z M156.75 496.3125 C155.35828157 499.37744045 155.35828157 499.37744045 157.125 502.5 C162.45731344 511.10400406 171.43869536 516.39799924 180.01855469 521.31689453 C181.70275789 522.28533512 183.37121774 523.28099469 185.0390625 524.27734375 C209.66715031 538.31479786 237.26714952 543.92496692 265.05419922 547.43847656 C278.01802538 549.11283508 290.24658763 551.7971907 302.1875 557.3125 C323.79994583 566.72972579 344.73047876 568.3150415 367.11328125 560.07421875 C371.86428763 558.041669 375.21111563 556.13481905 378.75 552.3125 C375.11877127 551.18729874 371.67349971 551.15589078 367.88671875 551.1015625 C366.50975492 551.07343603 365.132802 551.0447714 363.75585938 551.015625 C361.61516328 550.9748914 359.47465781 550.93796571 357.33374023 550.91113281 C336.96042205 550.6344964 320.77243845 545.48461258 303.125 535.25 C280.54478806 522.16132033 257.94799978 519.18462659 232.2578125 516.671875 C214.52656769 514.87239381 200.39502397 510.44950289 184.51806641 502.47216797 C177.26856575 498.87198953 169.84926009 495.8086823 161.625 496.125 C160.69429687 496.15207031 159.76359375 496.17914062 158.8046875 496.20703125 C158.12664063 496.24183594 157.44859375 496.27664063 156.75 496.3125 Z M-408.25 498.3125 C-401.20811521 525.0716622 -375.17921219 545.9910454 -354.25 562.3125 C-353.64639648 562.79396484 -353.04279297 563.27542969 -352.42089844 563.77148438 C-315.94160428 592.86188766 -283.65108557 600.90773079 -237.25 596.3125 C-217.46368816 593.98380563 -197.08418003 589.76662821 -178.34545898 582.94555664 C-168.33501733 579.92131393 -157.40598111 580.99646567 -147.19824219 582.38037109 C-113.33858987 586.95530122 -65.79948315 590.38519883 -35.25 572.3125 C-31.57326946 569.31948785 -29.07764156 566.12986206 -28.375 561.375 C-28.33375 560.364375 -28.2925 559.35375 -28.25 558.3125 C-33.37984681 554.89260212 -38.95773106 556.85404621 -44.78515625 558.01953125 C-46.65494141 558.41205078 -46.65494141 558.41205078 -48.5625 558.8125 C-71.85436008 563.62099075 -104.46037849 563.97073278 -126.25 553 C-131.65234323 550.30559467 -137.16995167 551.33275412 -142.78662109 553.11938477 C-145.35912611 554.11545991 -147.89818976 555.17226949 -150.4375 556.25 C-171.59135772 564.70780566 -188.64581777 561.75379165 -209.25 553.3125 C-216.12151499 550.35921922 -222.92604776 547.25129056 -229.71435547 544.11230469 C-230.36625854 543.81155533 -231.01816162 543.51080597 -231.68981934 543.20094299 C-233.47507711 542.37547821 -235.25788653 541.54472421 -237.04052734 540.71362305 C-243.9153531 537.7123584 -249.76141153 536.39871391 -257.25 537.3125 C-261.27688617 539.32594308 -263.86949479 541.50369166 -266.25 545.3125 C-266.53230469 546.28123047 -266.53230469 546.28123047 -266.8203125 547.26953125 C-269.12666409 550.56521945 -272.65398309 551.04252961 -276.375 552 C-277.57974976 552.31916382 -277.57974976 552.31916382 -278.80883789 552.64477539 C-295.10009059 556.71638774 -309.29389848 555.72447245 -324.5 548.4375 C-325.53213623 547.9520874 -326.56427246 547.4666748 -327.62768555 546.96655273 C-350.23034128 536.2347149 -372.2367065 525.07600053 -390.9296875 508.25 C-398.59807844 500.98001896 -398.59807844 500.98001896 -408.25 498.3125 Z M85.75 537.3125 C88.19182607 546.99412619 91.30611194 557.36648236 99.75 563.3125 C102.23217684 564.55358842 104.52538282 564.58718402 107.25927734 564.8059082 C118.89347033 565.78631772 129.68465758 568.67819056 140.75 572.3125 C141.95269531 572.704375 143.15539062 573.09625 144.39453125 573.5 C150.85431761 575.8882137 155.30912982 579.15125384 160.25390625 583.9140625 C171.98744341 595.18854109 184.05116132 605.51404808 200.76171875 605.80859375 C204.34053859 605.21446287 205.4976353 604.08000407 207.75 601.3125 C202.98392795 596.38755888 197.86594512 591.86876545 192.75 587.3125 C191.75806641 586.41144531 191.75806641 586.41144531 190.74609375 585.4921875 C182.17929339 577.80174041 174.09253656 571.46540319 163.125 567.6953125 C158.59105586 565.83765483 154.70582722 563.292927 150.68212891 560.52148438 C144.77188388 556.48179238 139.45071865 554.14269676 132.3125 553.5 C119.00484344 551.76300062 106.76531925 545.56550042 94.57983398 540.20874023 C93.72075439 539.83305908 92.8616748 539.45737793 91.9765625 539.0703125 C91.20908691 538.7314502 90.44161133 538.39258789 89.65087891 538.04345703 C87.77830577 537.19286173 87.77830577 537.19286173 85.75 537.3125 Z M431.75 627.375 C429.6967723 628.38573712 427.64338668 629.3961535 425.58984375 630.40625 C424.09493408 631.15068359 424.09493408 631.15068359 422.56982422 631.91015625 C418.83413155 633.76797605 415.08188878 635.58671574 411.3125 637.375 C410.22066406 637.90222656 409.12882812 638.42945313 408.00390625 638.97265625 C398.77401456 642.77319989 390.9120519 643.14834362 381.4375 639.9375 C380.66277344 639.67928467 379.88804687 639.42106934 379.08984375 639.1550293 C372.27831416 636.7524545 366.19411403 633.41513073 359.96435547 629.79785156 C350.16725992 624.14676696 342.01367243 621.78400199 330.8125 624.6875 C315.00766912 629.85306973 300.68073108 641.54844085 288.875 653 C283.21516555 658.21447042 276.63544733 661.08460253 269.75195312 664.34179688 C260.42861377 668.86247947 251.91381064 674.49430378 243.45825195 680.43432617 C229.1494456 690.39401544 229.1494456 690.39401544 220.62426758 690.47021484 C219.38070244 690.48560806 219.38070244 690.48560806 218.11201477 690.50131226 C217.21524521 690.50861359 216.31847565 690.51591492 215.39453125 690.5234375 C213.4719974 690.5515545 211.5494715 690.58021914 209.62695312 690.609375 C206.61499678 690.65023817 203.60318101 690.68713901 200.59106445 690.71386719 C171.60161394 690.9930516 151.60923433 698.38302972 128.53857422 715.70776367 C109.36070612 730.07320086 92.91830865 733.59896583 69.46801758 734.39648438 C59.70080792 734.74569437 51.23431466 735.23245054 42.25 739.5 C32.97813364 742.51335657 22.58140487 738.67694198 13.49414062 736.53320312 C1.53002972 733.81557531 -9.59225361 731.58547031 -21.25 736.3125 C-22.05920898 736.62703125 -22.86841797 736.9415625 -23.70214844 737.265625 C-26.1887297 738.25359265 -28.65677691 739.279622 -31.125 740.3125 C-42.88350746 745.1221539 -54.21049598 748.16732439 -66.9621582 748.60302734 C-83.39714405 749.06983566 -83.39714405 749.06983566 -98.25 755.3125 C-100.08333333 757.47916667 -100.08333333 757.47916667 -100.25 760.3125 C-98.37137791 765.57264186 -96.25758465 767.62995248 -91.3125 770.1875 C-85.73498461 772.79091522 -80.80916191 773.43929137 -74.67578125 773.4453125 C-73.38309326 773.44732666 -72.09040527 773.44934082 -70.75854492 773.45141602 C-69.35986161 773.44731104 -67.96117982 773.44265792 -66.5625 773.4375 C-65.84494537 773.43628143 -65.12739075 773.43506287 -64.38809204 773.43380737 C-54.20911041 773.41364595 -44.05650853 773.19804745 -33.88696289 772.73657227 C-25.13641551 772.35019818 -16.38879817 772.15711956 -7.63208008 771.98681641 C27.42597733 771.30156319 61.80662154 769.69469757 95.86328125 760.58203125 C102.90450323 758.72299093 109.55972857 758.12847101 116.8125 757.875 C122.62979864 757.64510846 128.27199981 757.35965352 134 756.25 C140.37285756 755.10338417 146.61490857 755.28380083 153.0625 755.375 C184.12940556 755.66726546 208.99552152 742.85572832 233.60839844 724.84594727 C245.74738294 716.09520914 257.31308932 713.60672747 272.1328125 713.02783203 C299.08738713 711.94190078 324.34791771 702.33634557 349.47915649 693.25717163 C357.4185881 690.39623681 365.2403177 687.66161052 373.5625 686.125 C401.79078474 680.85643975 433.53666133 662.30180743 450.96484375 639.40234375 C453.21515753 635.89185425 454.603407 633.03213836 455.4375 628.9375 C454.91371221 626.1468142 454.91371221 626.1468142 452.6875 623.9375 C445.06398448 619.72023609 438.82002315 623.78733993 431.75 627.375 Z M-89.25 629.3125 C-89.27308597 631.53378555 -89.27308597 631.53378555 -88.875 633.9375 C-88.66666667 635.39583333 -88.45833333 636.85416667 -88.25 638.3125 C-89.41563477 638.41199951 -90.58126953 638.51149902 -91.78222656 638.61401367 C-98.85645129 639.40599048 -105.78273962 640.99507381 -112.734375 642.48828125 C-114.25799442 642.8128793 -115.78164108 643.13734944 -117.30531311 643.46170044 C-121.3660037 644.32840657 -125.42496578 645.20294003 -129.48328018 646.08069992 C-131.16383132 646.44415878 -132.84449335 646.80710525 -134.52526474 647.16954422 C-159.54504751 652.5648082 -184.32878993 658.46622749 -208.99336243 665.32147217 C-230.02350562 671.14850443 -251.26842491 676.08588548 -272.6875 680.25 C-273.42727081 680.39402252 -274.16704163 680.53804504 -274.92922974 680.68643188 C-303.68565902 686.24400381 -328.22870908 685.66703914 -356.99584961 680.80297852 C-369.54119827 678.72685486 -381.53719163 677.87280364 -394.25 678.3125 C-394.91 679.6325 -395.57 680.9525 -396.25 682.3125 C-386.02290149 693.17879216 -373.99455453 698.41933088 -359.875 702.6875 C-358.6163916 703.07180176 -357.3577832 703.45610352 -356.06103516 703.85205078 C-347.30272302 706.50021846 -338.49280109 708.93088996 -329.625 711.1875 C-328.5623291 711.46126465 -327.4996582 711.7350293 -326.40478516 712.01708984 C-309.05753232 716.29489428 -292.39837126 717.80051305 -274.5625 717.625 C-273.55286194 717.61940063 -272.54322388 717.61380127 -271.50299072 717.60803223 C-256.69860552 717.52542272 -241.93432991 717.38160114 -227.25 715.3125 C-226.49589844 715.21018066 -225.74179687 715.10786133 -224.96484375 715.00244141 C-184.85337206 709.16883824 -135.55168109 695.45084034 -106.89453125 665.87109375 C-96.93958893 655.61104531 -87.63889199 646.90702349 -72.76171875 645.53125 C-71.50955566 645.41265625 -70.25739258 645.2940625 -68.96728516 645.171875 C-67.62402674 645.05204629 -66.28076495 644.93225544 -64.9375 644.8125 C-63.55251818 644.68286128 -62.16759016 644.55264653 -60.78271484 644.421875 C-54.18114534 643.80590472 -47.57879428 643.2490415 -40.96484375 642.78125 C-39.28998901 642.66040039 -39.28998901 642.66040039 -37.58129883 642.53710938 C-35.50766819 642.39184628 -33.43326864 642.25701886 -31.3581543 642.13476562 C-25.24703561 641.7118291 -19.95464628 640.55834032 -14.25 638.3125 C-14.58 637.3225 -14.91 636.3325 -15.25 635.3125 C-17.58098738 634.44744727 -19.72385347 633.81933591 -22.1328125 633.265625 C-23.20113815 633.01090424 -23.20113815 633.01090424 -24.29104614 632.7510376 C-32.02317139 630.99792119 -39.82166276 630.07515332 -47.70361328 629.30175781 C-50.1181196 629.06317985 -52.52949174 628.80242966 -54.94140625 628.5390625 C-63.06707022 627.68529166 -71.14782466 627.14081716 -79.3203125 627.078125 C-80.08818085 627.06795349 -80.85604919 627.05778198 -81.64718628 627.04730225 C-85.91083228 626.9192827 -85.91083228 626.9192827 -89.25 629.3125 Z M417.06640625 837.30078125 C408.20120515 840.42804782 399.86381103 841.87877755 390.5 842.75 C381.10718216 843.68961427 373.63799588 844.79649721 365.75 850.3125 C364.53013927 851.15262166 363.31007123 851.99244236 362.08984375 852.83203125 C360.05969809 854.23757434 358.03207273 855.64632479 356.01000977 857.06347656 C333.90782834 872.42487018 308.60808707 880.32005336 281.75 881.3125 C280.23019531 881.374375 280.23019531 881.374375 278.6796875 881.4375 C245.84207311 882.08295679 212.99996373 875.23233074 180.85403442 869.34103394 C114.22658578 857.14572165 46.53568818 852.03487145 -20.82811737 845.48442078 C-26.70843034 844.91253488 -32.58860874 844.33927342 -38.46875 843.765625 C-39.59024319 843.65634926 -40.71173637 843.54707352 -41.8672142 843.43448639 C-55.41781421 842.11219643 -68.96297662 840.76810712 -82.48144531 839.14459229 C-112.63330251 835.5922337 -135.18065789 843.1118172 -160.75585938 858.78515625 C-189.70561688 876.51319883 -221.46189163 886.56479764 -255.54003906 878.79003906 C-266.92937772 875.89878969 -277.65664467 871.60817757 -288.44482422 867.00170898 C-320.24720794 853.46785103 -350.13768923 851.56323696 -384.25 855.3125 C-375.48845103 902.16984476 -364.63024621 949.23045183 -350.4375 994.75 C-350.11809448 995.78478989 -350.11809448 995.78478989 -349.79223633 996.84048462 C-347.4441252 1004.39323212 -344.77128592 1011.73464723 -341.62890625 1018.9921875 C-341.1991877 1019.98810158 -341.1991877 1019.98810158 -340.76078796 1021.00413513 C-338.30574968 1026.52079649 -335.23237322 1030.82651927 -331.25 1035.3125 C-329.93080781 1036.87427921 -328.61179592 1038.43621504 -327.29614258 1040.00097656 C-325.87127227 1041.69192383 -324.43821943 1043.37565325 -323.00390625 1045.05859375 C-320.56821908 1047.92504839 -318.1827786 1050.82909406 -315.8125 1053.75 C-310.91427761 1059.76383177 -305.86086754 1065.63883404 -300.79833984 1071.51416016 C-298.77621964 1073.86277848 -296.75938426 1076.21589651 -294.74316406 1078.56958008 C-293.74684848 1079.73254557 -292.7501028 1080.89514274 -291.75292969 1082.05737305 C-289.23379402 1084.9937662 -286.71974298 1087.93426188 -284.21484375 1090.8828125 C-278.50323217 1097.5955419 -272.68365556 1104.17789434 -266.69921875 1110.6484375 C-264.68126221 1112.84340777 -262.70196555 1115.0591621 -260.75 1117.3125 C-257.8491184 1120.65753573 -254.87068008 1123.92754039 -251.875 1127.1875 C-251.40570068 1127.70094971 -250.93640137 1128.21439941 -250.45288086 1128.7434082 C-248.22026826 1131.18363417 -245.97330086 1133.6009915 -243.68359375 1135.98828125 C-242.90113281 1136.81714844 -242.11867188 1137.64601563 -241.3125 1138.5 C-240.62285156 1139.21542969 -239.93320312 1139.93085937 -239.22265625 1140.66796875 C-233.02348144 1148.97854568 -232.44179747 1157.67684861 -231.86461381 1167.71610761 C-231.65953605 1171.27713701 -231.41644532 1174.83533671 -231.17679479 1178.39417922 C-231.05192038 1180.25731395 -230.92904842 1182.12058389 -230.80811233 1183.98397839 C-230.19197962 1193.44864571 -229.40707519 1202.89634306 -228.59846497 1212.34619141 C-228.45345293 1214.05815199 -228.30862581 1215.77012825 -228.16397703 1217.48211956 C-227.78683794 1221.94051657 -227.40733355 1226.39870911 -227.02734149 1230.85686374 C-226.61080835 1235.74906251 -226.19660922 1240.64145905 -225.78208923 1245.53382874 C-225.06804426 1253.95774967 -224.35260614 1262.38155127 -223.63614845 1270.80526733 C-222.60034564 1282.98369334 -221.56675785 1295.16230659 -220.53366526 1307.34096277 C-218.85640797 1327.11269216 -217.17742427 1346.88427453 -215.49731445 1366.65576172 C-213.86780841 1385.83179 -212.23914058 1405.00788918 -210.61157227 1424.18408203 C-210.46041775 1425.96499646 -210.46041775 1425.96499646 -210.3062096 1427.78188896 C-209.80054961 1433.73967501 -209.29490581 1439.69746244 -208.78927004 1445.65525055 C-204.61202152 1494.8745468 -200.43195424 1544.09360336 -196.25 1593.3125 C-193.24592521 1594.27078141 -190.24073665 1595.2255242 -187.23535156 1596.1796875 C-186.39420807 1596.4480542 -185.55306458 1596.7164209 -184.68643188 1596.99291992 C-177.1854889 1599.37114593 -169.64108563 1601.42665914 -162 1603.3125 C-161.32845886 1603.47891998 -160.65691772 1603.64533997 -159.96502686 1603.81680298 C-113.23447396 1615.35052445 -64.48721977 1622.37364824 -16.30859375 1622.515625 C-14.82335888 1622.52264904 -13.33812431 1622.52973584 -11.85289001 1622.53688049 C-7.13108891 1622.55628004 -2.40933694 1622.56131501 2.3125 1622.5625 C3.52020679 1622.56316278 3.52020679 1622.56316278 4.75231171 1622.56383896 C28.78564577 1622.57075409 52.67147972 1622.34836773 76.57354736 1619.56573486 C78.84761691 1619.30114207 81.12267976 1619.04653345 83.39794922 1618.79248047 C125.70469795 1614.00418238 167.26807986 1605.46868497 208.25 1594 C209.02177582 1593.78717377 209.79355164 1593.57434753 210.5887146 1593.35507202 C212.76076609 1592.75288359 214.927706 1592.13512373 217.09375 1591.51171875 C218.33318359 1591.15940186 219.57261719 1590.80708496 220.84960938 1590.4440918 C224.02199939 1589.52582294 224.02199939 1589.52582294 225.75 1586.3125 C226.16470907 1583.90538451 226.47663373 1581.56878273 226.71893883 1579.14370537 C226.79940169 1578.4051209 226.87986456 1577.66653644 226.96276569 1576.90557063 C227.23237688 1574.41185483 227.4900535 1571.91704691 227.74789429 1569.42208862 C227.93991797 1567.62329922 228.13267906 1565.8245884 228.32611716 1564.02595055 C228.85717025 1559.06838348 229.37787995 1554.10977524 229.89701557 1549.15094805 C230.45814803 1543.80862074 231.02887943 1538.46731868 231.59858704 1533.12590027 C232.58519979 1523.86438542 233.56607035 1514.60227693 234.54340744 1505.3397789 C235.95782611 1491.9375323 237.3841909 1478.53657711 238.81409164 1465.13597442 C241.13522662 1443.38254928 243.45115697 1421.62857413 245.76171875 1399.87402344 C245.96928672 1397.9197614 245.96928672 1397.9197614 246.18104799 1395.92601933 C247.72427223 1381.39497035 249.26569054 1366.86373106 250.80450439 1352.33221436 C250.94276944 1351.02654558 251.08103449 1349.7208768 251.22348938 1348.37564231 C251.50234207 1345.74232643 251.78119472 1343.10901055 252.06004734 1340.47569467 C252.19781961 1339.17467246 252.33559188 1337.87365025 252.47753906 1336.53320312 C252.61514079 1335.23376286 252.75274253 1333.93432259 252.89451401 1332.59550534 C255.18897365 1310.93073865 257.49501776 1289.26722334 259.8104378 1267.60468686 C261.23860482 1254.23857298 262.65688989 1240.87148242 264.06252684 1227.50298007 C265.02666084 1218.34066505 266.00157765 1209.17953859 266.98500107 1200.01927404 C267.55216345 1194.73296518 268.11436806 1189.44624959 268.66345024 1184.15802956 C269.1663443 1179.31552949 269.6830804 1174.47471338 270.21079238 1169.63485684 C270.39910718 1167.88501987 270.58234557 1166.13462745 270.75994806 1164.38367079 C271.81407337 1154.02318371 272.92333416 1144.46277677 279.75 1136.125 C280.65492188 1135.01318359 280.65492188 1135.01318359 281.578125 1133.87890625 C285.24339184 1129.54782655 288.92176763 1125.22892017 292.62890625 1120.93359375 C295.58202728 1117.51163614 298.51643574 1114.07435281 301.4375 1110.625 C301.89366699 1110.08633301 302.34983398 1109.54766602 302.81982422 1108.99267578 C305.6251373 1105.67014257 308.38599194 1102.31511103 311.125 1098.9375 C315.29156423 1093.81516476 319.61201281 1088.83832622 323.95043945 1083.86206055 C327.87489097 1079.35034637 331.68426783 1074.75924445 335.44921875 1070.11328125 C338.13059006 1066.84920106 340.87066327 1063.64002374 343.625 1060.4375 C344.13135986 1059.84864014 344.63771973 1059.25978027 345.15942383 1058.65307617 C346.18342444 1057.46239671 347.2074316 1056.27172288 348.23144531 1055.08105469 C351.58764346 1051.17232489 354.92757376 1047.2507667 358.23046875 1043.296875 C359.74111461 1041.50752083 361.27771395 1039.73894029 362.86328125 1038.015625 C395.58991011 1001.02600841 405.2651082 928.77075946 414.1875 881.9375 C414.43007538 880.66593552 414.43007538 880.66593552 414.67755127 879.36868286 C416.43460689 870.09095341 418.0381347 860.7941331 419.47265625 851.4609375 C419.60208115 850.6330069 419.73150604 849.80507629 419.86485291 848.95205688 C420.50127945 844.69552075 420.8919968 840.63146081 420.75 836.3125 C419.42976731 836.25490354 419.42976731 836.25490354 417.06640625 837.30078125 Z " fill="#07538A" transform="translate(596.25,55.6875)"/>
<path d="M0 0 C28.71 0 57.42 0 87 0 C89.92875 7.816875 92.8575 15.63375 95.875 23.6875 C107.79691825 55.48945049 119.77027589 87.27195259 131.75605297 119.04988098 C133.87701675 124.67339974 135.99671991 130.29739299 138.11630249 135.9214325 C139.72884659 140.19941941 141.34232713 144.47705256 142.95617676 148.75454712 C143.68707607 150.69222062 144.41763263 152.63002344 145.14782715 154.56796265 C146.13009167 157.17459782 147.11367736 159.78073034 148.09765625 162.38671875 C148.38171829 163.14142456 148.66578033 163.89613037 148.95845032 164.67370605 C150.35434118 168.39033038 150.35434118 168.39033038 152 172 C154.63868505 164.8891134 157.2771843 157.77815788 159.91548729 150.66712952 C161.21815295 147.15605416 162.52086199 143.64499492 163.82366943 140.13397217 C169.30281623 125.36768652 174.78046219 110.60086528 180.2421875 95.828125 C192.06694399 63.84955679 204.00479779 31.91494563 216 0 C232.83 0 249.66 0 267 0 C267 9.24 267 18.48 267 28 C262.38 28.33 257.76 28.66 253 29 C252.2806955 30.81941728 251.56139104 32.63883458 250.84208679 34.45825195 C250.18674296 36.11588574 249.53139828 37.77351919 248.87605286 39.43115234 C246.99824103 44.18090051 245.12044531 48.93065504 243.24267578 53.68041992 C239.36652455 63.48498732 235.49018676 73.28948084 231.61328125 83.09375 C224.90421816 100.06067226 218.1975457 117.02852766 211.5 134 C206.21282674 147.39761141 200.92084308 160.79331321 195.625 174.1875 C195.2728241 175.07825226 194.92064819 175.96900452 194.55780029 176.88674927 C190.92252541 186.08130032 187.28668012 195.27562547 183.64968872 204.46949768 C182.17072703 208.20826554 180.69201129 211.94713067 179.21331787 215.68600464 C178.49229176 217.50890956 177.77114261 219.33176582 177.04986572 221.15457153 C173.52623229 230.05952389 170.00734557 238.96613764 166.5234375 247.88671875 C166.26023712 248.55994675 165.99703674 249.23317474 165.7258606 249.92680359 C164.5250068 252.99867707 163.3267142 256.07146321 162.13330078 259.14624023 C161.72837402 260.18337158 161.32344727 261.22050293 160.90625 262.2890625 C160.55884766 263.18318848 160.21144531 264.07731445 159.85351562 264.99853516 C159 267 159 267 158 268 C156.40389018 268.09333705 154.80366572 268.11745372 153.20483398 268.11352539 C152.18385117 268.11344986 151.16286835 268.11337433 150.11094666 268.11329651 C149.0005452 268.10813522 147.89014374 268.10297394 146.74609375 268.09765625 C145.61551041 268.0962413 144.48492706 268.09482635 143.32008362 268.09336853 C139.69252935 268.08775019 136.06503576 268.07519458 132.4375 268.0625 C129.98502693 268.05748736 127.5325529 268.05292405 125.08007812 268.04882812 C119.05336455 268.0377748 113.02668661 268.02101884 107 268 C97.34578086 243.37851323 87.72438126 218.74474326 78.17269897 194.08328247 C72.80101968 180.21463027 67.41310985 166.35253351 62 152.5 C55.73796759 136.47445448 49.5112442 120.43540585 43.2958374 104.39172363 C36.94289092 87.99420557 30.56476533 71.60668763 24.16210938 55.22851562 C20.74882168 46.49541117 17.35655352 37.75511679 14 29 C7.07 28.505 7.07 28.505 0 28 C0 18.76 0 9.52 0 0 Z " fill="#07538A" transform="translate(339,997)"/>
<path d="M0 0 C28.71 0 57.42 0 87 0 C102.13154098 39.57479948 102.13154098 39.57479948 109.52807617 59.34887695 C109.92236077 60.40229137 109.92236077 60.40229137 110.32461071 61.47698689 C110.87531158 62.94831 111.42595104 64.41965611 111.97652817 65.89102554 C114.30267997 72.10722029 116.63020018 78.32290298 118.95770454 84.53859138 C119.5531575 86.12884322 120.14854918 87.719118 120.74387932 89.30941582 C124.88738207 100.37732889 129.04678061 111.43913512 133.21942329 122.49609375 C134.90565663 126.96580372 136.58935787 131.43646825 138.27306271 135.9071312 C139.86803402 140.14121084 141.46720353 144.37367449 143.06935883 148.60504055 C143.81713318 150.58230378 144.56266288 152.56039514 145.30715942 154.53889465 C146.21104256 156.9409569 147.11853023 159.34166699 148.03024292 161.74076843 C148.42462555 162.79222549 148.81900818 163.84368256 149.2253418 164.92700195 C149.57026169 165.8401265 149.91518158 166.75325104 150.27055359 167.69404602 C151 170 151 170 151 173 C151.66 173 152.32 173 153 173 C153.09700195 172.19731689 153.19400391 171.39463379 153.29394531 170.56762695 C154.17137354 166.13406583 155.67953881 162.12841784 157.296875 157.91796875 C157.6373436 157.01753342 157.97781219 156.11709808 158.32859802 155.18937683 C159.07169159 153.22529277 159.81718871 151.26211679 160.56478882 149.29974365 C162.62964869 143.87763228 164.67506198 138.44818103 166.72265625 133.01953125 C167.15496048 131.87464233 167.58726471 130.72975342 168.03266907 129.5501709 C172.82204137 116.85126259 177.50712871 104.11439355 182.1875 91.375 C183.93427893 86.62347089 185.6817398 81.87219302 187.4296875 77.12109375 C187.87246536 75.91756256 188.31524323 74.71403137 188.7714386 73.47402954 C194.42424852 58.11832304 200.11833027 42.77790699 205.8125 27.4375 C206.07075436 26.74170586 206.32900871 26.04591171 206.59508896 25.3290329 C209.72900277 16.88562928 212.86428941 8.44273669 216 0 C232.83 0 249.66 0 267 0 C267 9.24 267 18.48 267 28 C262.38 28 257.76 28 253 28 C252.58459961 29.27883057 252.16919922 30.55766113 251.74121094 31.87524414 C250.03695529 36.98284781 248.11546972 41.98797645 246.140625 46.99609375 C245.57523766 48.43765587 245.57523766 48.43765587 244.99842834 49.90834045 C243.75136233 53.08567966 242.50078514 56.26162319 241.25 59.4375 C240.3621316 61.69657854 239.47435692 63.95569392 238.58666992 66.21484375 C229.46207779 89.42092647 220.26043818 112.59652467 211.05877686 135.77212524 C206.73779103 146.65674286 202.42897257 157.54614568 198.125 168.4375 C197.44206004 170.16536567 196.75911735 171.89323026 196.07617188 173.62109375 C192.97025243 181.47986825 189.86592729 189.33927102 186.76293945 197.19920349 C179.83904095 214.73675527 172.91258328 232.27339924 165.93099976 249.78808594 C165.31475108 251.33493939 164.6993615 252.88213541 164.08486938 254.4296875 C163.24658715 256.54007265 162.40503605 258.64912271 161.5625 260.7578125 C161.08941406 261.9452002 160.61632812 263.13258789 160.12890625 264.35595703 C159 267 159 267 158 268 C156.40389018 268.09333705 154.80366572 268.11745372 153.20483398 268.11352539 C152.18385117 268.11344986 151.16286835 268.11337433 150.11094666 268.11329651 C149.0005452 268.10813522 147.89014374 268.10297394 146.74609375 268.09765625 C145.61551041 268.0962413 144.48492706 268.09482635 143.32008362 268.09336853 C139.69252935 268.08775019 136.06503576 268.07519458 132.4375 268.0625 C129.98502693 268.05748736 127.5325529 268.05292405 125.08007812 268.04882812 C119.05336455 268.0377748 113.02668661 268.02101884 107 268 C106.76435333 267.38804779 106.52870667 266.77609558 106.28591919 266.14559937 C95.82367312 238.97920041 85.34962458 211.81817466 74.7208252 184.71640015 C68.90510149 169.88643438 63.128181 155.04183936 57.375 140.1875 C43.00516096 103.09041768 28.50308532 66.04515385 14 29 C7.07 28.505 7.07 28.505 0 28 C0 18.76 0 9.52 0 0 Z " fill="#07538A" transform="translate(592,1117)"/>
</svg>
