<?xml version="1.0" encoding="UTF-8"?>
<svg version="1.1" xmlns="http://www.w3.org/2000/svg" width="1640" height="1228">
<path d="M0 0 C45.54 0 91.08 0 138 0 C138.03867187 33.39316406 138.03867187 33.39316406 138.078125 67.4609375 C138.10328375 81.54297702 138.1294213 95.62500443 138.16015625 109.70703125 C138.17624822 117.10367776 138.19209167 124.50032473 138.20751953 131.89697266 C138.20946347 132.82400501 138.21140741 133.75103737 138.21341026 134.70616162 C138.24441974 149.66682034 138.26140236 164.62746372 138.27319422 179.58814852 C138.285611 194.94510904 138.31312432 210.30198918 138.35461307 225.65889895 C138.37973336 235.13277315 138.39311835 244.60651402 138.39142957 254.080422 C138.39139979 260.57955136 138.40605143 267.07854503 138.43216428 273.5776215 C138.44679282 277.3256884 138.45502826 281.07347702 138.44580269 284.82156754 C138.43595627 288.89086092 138.45706698 292.95942131 138.48101807 297.02865601 C138.47325765 298.20572156 138.46549723 299.38278712 138.45750165 300.59552133 C138.5405755 308.57637665 139.70183143 315.6571856 144.63469148 322.15245569 C146 324 146 324 146 326 C146.79083984 326.38865234 146.79083984 326.38865234 147.59765625 326.78515625 C149.41158216 327.70244236 151.20833751 328.65379409 152.99609375 329.62109375 C166.88120615 336.94978531 178.84612601 338.20512511 195 340 C195 270.04 195 200.08 195 128 C188.07 128 181.14 128 174 128 C174 116.12 174 104.24 174 92 C219.87 92 265.74 92 313 92 C313 95.63 313 99.26 313 103 C315.54238159 101.41780528 318.08391923 99.83428153 320.625 98.25 C321.33785156 97.8065625 322.05070312 97.363125 322.78515625 96.90625 C323.48769531 96.46796875 324.19023438 96.0296875 324.9140625 95.578125 C325.61176758 95.14435547 326.30947266 94.71058594 327.02832031 94.26367188 C328.77352656 93.1451494 330.46590634 91.94512943 332.1484375 90.734375 C346.37735756 82.08007294 374.98137589 89.26570588 390.32421875 92.8203125 C415.41028735 98.98399126 438.27519165 110.05244785 457 128 C457.86625 128.825 458.7325 129.65 459.625 130.5 C460.40875 131.325 461.1925 132.15 462 133 C462.556875 133.55042969 463.11375 134.10085937 463.6875 134.66796875 C475.35373898 146.82814123 483.6972768 163.09183039 489 179 C489.30067383 178.20118408 489.30067383 178.20118408 489.60742188 177.38623047 C500.49900319 148.69395249 515.92592523 127.51842074 542 111 C542.98355469 110.35417969 543.96710937 109.70835937 544.98046875 109.04296875 C559.16965746 100.17722742 575.75556612 94.69419475 592 91 C593.03108887 90.75443359 593.03108887 90.75443359 594.08300781 90.50390625 C618.13412727 85.04133383 648.01642379 85.42650653 672 91 C672.76892578 91.16628906 673.53785156 91.33257812 674.33007812 91.50390625 C709.81727864 99.28745145 741.24498016 118.73754848 761.89453125 148.75390625 C777.52899801 173.56435802 781.22943061 203.55430576 781.25 232.25 C781.25101212 233.51839218 781.25101212 233.51839218 781.25204468 234.81240845 C781.23526302 248.06881995 780.74101511 260.98485801 778 274 C777.82839355 274.81903809 777.65678711 275.63807617 777.47998047 276.48193359 C770.72112999 307.38902733 753.72280964 334.40403318 726.96728516 351.76464844 C685.51762865 377.79285171 634.80577303 383.93841851 587.30444336 373.15820312 C554.92293666 365.29599223 522.31777941 347.36284065 503.9140625 318.7578125 C495.00039653 303.99845972 485.06957385 284.64990216 486 267 C485.34 267 484.68 267 484 267 C483.5359375 268.7325 483.5359375 268.7325 483.0625 270.5 C478.93345957 282.80958062 471.11807197 294.02451316 463 304 C462.54222168 304.56460937 462.08444336 305.12921875 461.61279297 305.7109375 C427.53629489 347.45493247 375.93915677 367.45702356 323.53100586 373.81982422 C320.02901904 374.06912163 316.51084902 374 313 374 C313 393.47 313 412.94 313 433 C319.6 433 326.2 433 333 433 C333 445.87 333 458.74 333 472 C280.86 472 228.72 472 175 472 C175 459.13 175 446.26 175 433 C181.6 433 188.2 433 195 433 C195 414.19 195 395.38 195 376 C187.430625 376.04125 179.86125 376.0825 172.0625 376.125 C129.07142186 376.17716508 85.88694809 373.10180422 51 345 C50.23558594 344.41089844 49.47117187 343.82179688 48.68359375 343.21484375 C30.87314557 328.62576359 22.40962742 305.70790399 20.17898417 283.36000705 C19.51452488 274.59873705 19.74377999 265.7699119 19.77294922 256.99047852 C19.7735143 254.59420781 19.77319488 252.19793676 19.77206421 249.80166626 C19.77155252 244.00640442 19.78016213 238.21120958 19.79293953 232.415963 C19.80732279 225.66417445 19.81023731 218.91239498 19.81251587 212.16059326 C19.81687773 200.12291727 19.83014557 188.0852686 19.84912109 176.04760742 C19.86751917 164.36401505 19.88165638 152.68043013 19.89013672 140.99682617 C19.89066217 140.2749271 19.89118761 139.55302803 19.89172898 138.80925322 C19.89433933 135.18718347 19.89686668 131.56511367 19.89935279 127.94304383 C19.92003823 97.96200952 19.95577823 67.98100941 20 38 C13.4 38 6.8 38 0 38 C0 25.46 0 12.92 0 0 Z M619.375 128.75 C610.96586677 139.63082734 609.06830812 153.72096336 606.875 166.9375 C606.63716797 168.33536743 606.63716797 168.33536743 606.39453125 169.76147461 C603.31435089 189.33129699 602.67028012 209.01358375 602.73925781 228.7902832 C602.7499818 232.43132201 602.73928394 236.07186655 602.7265625 239.71289062 C602.71411674 259.53739804 603.50070052 279.41853349 606.8125 299 C607.06906372 300.53841553 607.06906372 300.53841553 607.33081055 302.10791016 C610.93523137 323.20466984 610.93523137 323.20466984 622.6875 340.5546875 C627.09831742 343.5156529 631.90248467 343.89626643 637 343 C645.02068506 339.22555997 648.97932951 331.7042375 652.04980469 323.76611328 C661.38270581 296.59710771 661.53166493 265.66911162 661.39111328 237.18652344 C661.37402258 233.69818836 661.38421343 230.21054077 661.40144157 226.722229 C662.99436181 174.24719515 662.99436181 174.24719515 644.59375 127.5546875 C640.91031742 123.96153513 637.17628538 121.81931644 631.9375 121.5 C626.11575931 122.23926866 623.35598686 124.57944234 619.375 128.75 Z M314 146 C312.49406894 149.01186212 312.8665588 152.11288355 312.87974548 155.41567993 C312.87889106 156.18918018 312.87803663 156.96268042 312.87715632 157.75962007 C312.8755022 160.36532327 312.88102179 162.97096284 312.88647461 165.57666016 C312.88675652 167.43900043 312.88659867 169.30134082 312.8860321 171.16368103 C312.88574429 176.23159246 312.89163848 181.29948039 312.89860606 186.36738634 C312.90484222 191.65917881 312.90544361 196.95097176 312.90663147 202.24276733 C312.90974401 212.26896629 312.91795636 222.29515438 312.92798096 232.32134855 C312.93914449 243.73351007 312.94465315 255.1456721 312.94967639 266.55783772 C312.96013903 290.03856451 312.97773699 313.51928165 313 337 C326.61838353 334.42457941 336.40056659 325.19726866 344.0703125 314.046875 C369.0042868 274.6774419 380.89363016 219.10118723 371.50488281 173.2265625 C368.42261205 159.63356958 363.13242481 145.59194433 350.9765625 137.68359375 C337.26077473 130.57812247 324.54703768 136.4417471 314 146 Z " fill="#07538A" transform="translate(677,32)"/>
<path d="M0 0 C45.54 0 91.08 0 138 0 C138.02578125 21.52863281 138.0515625 43.05726563 138.078125 65.23828125 C138.1032851 78.86003458 138.12942386 92.48177542 138.16015625 106.10351562 C138.17624799 113.25886979 138.19209141 120.41422445 138.20751953 127.56958008 C138.20946347 128.46635934 138.21140741 129.3631386 138.21341026 130.28709298 C138.24441183 144.75570551 138.26140015 159.22430217 138.27319422 173.69294164 C138.28561511 188.54705292 138.31313768 203.40108116 138.35461307 218.25514001 C138.37972163 227.41731134 138.39311921 236.5793449 138.39142957 245.74155112 C138.39139977 252.02857306 138.40606877 258.3154549 138.43216428 264.60242222 C138.44677929 268.22707452 138.45503998 271.85143953 138.44580269 275.47611618 C138.43593842 279.4136088 138.45709212 283.35060057 138.48101807 287.28804016 C138.47325765 288.42328339 138.46549723 289.55852663 138.45750165 290.72817117 C138.5786344 302.01779464 142.08127361 311.11899424 149 320 C149.45503906 320.60457031 149.91007812 321.20914062 150.37890625 321.83203125 C160.54472457 333.59040596 181.04770415 339.48660973 196 341 C223.53406737 342.29961712 247.0709293 339.16145796 271 325 C268.70224658 316.31234262 265.38117869 308.04526314 262.08197021 299.70361328 C260.27849715 295.14196986 258.48965644 290.57458445 256.69921875 286.0078125 C256.12763031 284.55112152 256.12763031 284.55112152 255.54449463 283.06500244 C251.10159823 271.73042194 246.73807359 260.36548833 242.375 249 C240.68254138 244.59365406 238.98972808 240.18744441 237.296875 235.78125 C236.65432518 234.10861588 236.65432518 234.10861588 235.99879456 232.40219116 C230.88637246 219.09676589 225.75730442 205.79776668 220.625 192.5 C220.16266968 191.30206818 219.70033936 190.10413635 219.22399902 188.86990356 C211.5157275 168.9003718 203.77566345 148.94338254 196 129 C185.605 128.505 185.605 128.505 175 128 C175 116.45 175 104.9 175 93 C215.26 93 255.52 93 297 93 C306.19676956 115.99192391 306.19676956 115.99192391 310.01977539 126.28588867 C311.89703471 131.33326798 313.7820253 136.37773471 315.66796875 141.421875 C316.01061264 142.33889694 316.35325653 143.25591888 316.70628357 144.20072937 C321.13202828 156.03956635 325.5980359 167.86322308 330.0625 179.6875 C330.4857959 180.80884338 330.9090918 181.93018677 331.34521484 183.08551025 C338.88597894 203.06110401 346.43800255 223.0324351 354 243 C357.52983655 234.70424063 360.80346715 226.34107465 363.921875 217.8828125 C364.37937134 216.64796112 364.83686768 215.41310974 365.30822754 214.14083862 C366.53743951 210.82283102 367.76367222 207.50373008 368.98927307 204.18438721 C370.27334978 200.70822375 371.56017473 197.23307784 372.84667969 193.7578125 C375.17412923 187.46939369 377.4991892 181.18009469 379.82314682 174.89038467 C381.79777627 169.54640048 383.77455991 164.2032155 385.75213623 158.86032104 C387.58545591 153.90713901 389.41788276 148.95362691 391.25 144 C391.72898743 142.7050058 391.72898743 142.7050058 392.21765137 141.3838501 C398.17695812 125.26749812 404.08468897 109.13266643 410 93 C433.43 93 456.86 93 481 93 C481 105.54 481 118.08 481 131 C471.1 131.495 471.1 131.495 461 132 C459.92258545 134.71130127 458.8451709 137.42260254 457.73510742 140.21606445 C452.55532689 153.24930557 447.37209545 166.28117358 442.1875 179.3125 C441.71196686 180.50777313 441.23643372 181.70304626 440.74649048 182.93453979 C424.05765324 224.87952896 407.27308696 266.78517186 390.40871716 308.65993977 C388.67648896 312.96129256 386.94474111 317.26283857 385.21326256 321.56449318 C384.39142792 323.60618638 383.56945119 325.6478224 382.74732399 327.68939781 C377.42574109 340.90737908 372.14666696 354.14024303 367.00476074 367.42932129 C366.61324829 368.43684448 366.22173584 369.44436768 365.81835938 370.48242188 C365.4868689 371.34154175 365.15537842 372.20066162 364.81384277 373.08581543 C364 375 364 375 363 376 C360.79132169 376.09432985 358.57958479 376.11742431 356.36889648 376.11352539 C355.67624695 376.11367142 354.98359741 376.11381744 354.2699585 376.1139679 C351.97030554 376.11326874 349.67073263 376.10547628 347.37109375 376.09765625 C345.78068588 376.09579208 344.19027743 376.09436817 342.59986877 376.09336853 C338.4060407 376.08954329 334.21224705 376.07971295 330.01843262 376.06866455 C325.74211086 376.05845057 321.46578356 376.05387094 317.18945312 376.04882812 C308.79295292 376.03809069 300.39648074 376.02101419 292 376 C291.73155273 375.39526855 291.46310547 374.79053711 291.18652344 374.16748047 C290.65333496 372.96696045 290.65333496 372.96696045 290.109375 371.7421875 C289.5829541 370.55665283 289.5829541 370.55665283 289.04589844 369.34716797 C288.39334222 367.88272457 287.7359576 366.42041167 287.07128906 364.96142578 C285.79834719 362.11509143 285 360.15763954 285 357 C284.4738208 357.27150879 283.9476416 357.54301758 283.40551758 357.82275391 C257.20313829 371.19414409 229.03228775 378.05735202 199.55859375 378.203125 C198.6009462 378.21013931 197.64329865 378.21715363 196.65663147 378.22438049 C193.58353918 378.24177826 190.51063973 378.24823266 187.4375 378.25 C186.38643066 378.25067474 185.33536133 378.25134949 184.25244141 378.25204468 C168.31144968 378.23578642 152.73308239 377.80928149 137 375 C136.04448242 374.83371094 135.08896484 374.66742187 134.10449219 374.49609375 C102.5981209 368.81547923 61.78540485 356.44299459 41.625 329.5 C38.42971068 324.83855941 35.58139499 320.02627389 33 315 C29.76401068 318.05988105 27.19277508 321.34914832 24.5625 324.9375 C1.37860366 355.57942722 -32.54913951 370.89907802 -69.95307922 376.25143433 C-82.78442845 377.96164084 -95.3774378 378.47966055 -108.3125 378.375 C-109.33393097 378.37067963 -110.35536194 378.36635925 -111.40774536 378.36190796 C-127.1104096 378.28427585 -142.50190436 377.7322924 -158 375 C-159.00385742 374.82839355 -160.00771484 374.65678711 -161.04199219 374.47998047 C-189.70131085 369.43914778 -217.5308694 359.55817091 -241 342 C-241.9796875 341.27296875 -242.959375 340.5459375 -243.96875 339.796875 C-270.04196319 319.43633212 -283.20540946 289.48606025 -287.22827148 257.16137695 C-291.50407079 216.43413347 -285.84182231 172.75887974 -260 139.6875 C-258.67914641 138.11443617 -257.34576645 136.55180433 -256 135 C-255.31421875 134.18144531 -254.6284375 133.36289062 -253.921875 132.51953125 C-228.58541147 103.12741079 -190.94631474 92.1058858 -153.4921875 88.53515625 C-149.65698073 88.25685596 -145.84401104 88.09095911 -142 88 C-141.31486328 87.97953613 -140.62972656 87.95907227 -139.92382812 87.93798828 C-100.24416453 86.85173505 -55.29546519 95.68690616 -25.34985352 123.60961914 C-9.13558706 139.33117958 -0.4104521 160.51710981 0.25 183 C0.01416724 205.63994485 -9.31619419 226.07439177 -24 243 C-24.67546875 243.81984375 -25.3509375 244.6396875 -26.046875 245.484375 C-53.20474892 277.39983267 -97.63554698 285.36407696 -136.6875 293 C-137.472388 293.15397247 -138.257276 293.30794495 -139.06594849 293.46658325 C-141.29666731 293.90100848 -143.52873125 294.3274063 -145.76171875 294.75 C-147.04006592 294.99234375 -148.31841309 295.2346875 -149.63549805 295.484375 C-152.50250089 295.92375603 -155.10988287 296.11027036 -158 296 C-153.58061691 310.59137098 -147.87261949 322.73645478 -133.9375 330.25 C-118.62131377 338.11179647 -103.05189218 341.39163014 -85.875 341.3125 C-84.59471924 341.30686035 -83.31443848 341.3012207 -81.99536133 341.29541016 C-47.1004429 340.84942638 -15.72736663 324.31072602 8.40771484 299.55615234 C11.37088534 296.45302244 14.18732404 293.23868345 17 290 C17.58265625 289.44441406 18.1653125 288.88882812 18.765625 288.31640625 C21.5341659 285.38814183 21.98448473 283.52407149 22.10546875 279.4375 C21.90059641 274.49871859 21.29512541 269.59640456 20.73717594 264.68777084 C19.72156686 254.40881014 19.86724209 244.12615956 19.88647461 233.80957031 C19.88675707 231.67974855 19.88659759 229.54992669 19.8860321 227.42010498 C19.88574645 221.66892427 19.89160565 215.91776462 19.89860606 210.16658878 C19.90487825 204.14481273 19.90544645 198.12303614 19.90663147 192.10125732 C19.90973342 180.71187724 19.91793144 169.32250682 19.92798096 157.93313098 C19.93917745 144.96091217 19.94466145 131.98869288 19.94967639 119.01647043 C19.96011504 92.3443081 19.97789501 65.672155 20 39 C13.4 39 6.8 39 0 39 C0 26.13 0 13.26 0 0 Z M-150.75 129.3125 C-164.62627596 145.88694072 -165.60628178 170.30428466 -167 191 C-167.06993164 192.01433105 -167.13986328 193.02866211 -167.21191406 194.07373047 C-168.55693807 214.9735842 -168.75830047 237.29773188 -165 258 C-152.73885704 257.29262637 -143.24868068 251.93846582 -135 243 C-119.08781185 224.51093927 -113.55869903 195.76675888 -115 172 C-116.20651889 156.84522062 -117.72333316 138.34224361 -129.4375 127.3125 C-136.69043444 121.9364214 -144.27417493 123.86691983 -150.75 129.3125 Z " fill="#07538A" transform="translate(618,524)"/>
<path d="M0 0 C17.16 0 34.32 0 52 0 C52 26.73 52 53.46 52 81 C73.12 81 94.24 81 116 81 C116 93.21 116 105.42 116 118 C94.88 118 73.76 118 52 118 C52.08550009 141.03566985 52.17912073 164.07126008 52.28752708 187.1068325 C52.33760466 197.80314078 52.38404811 208.49944158 52.421875 219.19580078 C52.45486214 228.5209915 52.4947304 237.84612336 52.54279006 247.17124903 C52.56798826 252.1067717 52.58978916 257.04225565 52.60334396 261.97782516 C52.61622506 266.62844117 52.63834413 271.27892395 52.66738319 275.92946625 C52.67641185 277.63133677 52.68213812 279.33322871 52.68421364 281.03512192 C52.44496388 299.68737762 52.44496388 299.68737762 60.65234375 315.875 C71.77330916 326.42740889 87.9323767 329.83652828 102.80859375 330.31640625 C103.92806396 330.35451416 105.04753418 330.39262207 106.20092773 330.43188477 C108.29803101 330.49653931 108.29803101 330.49653931 110.4375 330.5625 C114.913125 330.706875 119.38875 330.85125 124 331 C124 342.88 124 354.76 124 367 C106.50364606 367.08021762 106.50364606 367.08021762 98.9296875 367.09765625 C93.80204017 367.10951921 88.67446558 367.12340768 83.546875 367.15087891 C79.40360097 367.17293259 75.26040516 367.18463555 71.11707687 367.18975449 C69.55218655 367.1933929 67.98729952 367.20049337 66.42244339 367.21146011 C50.79731537 367.31640593 35.50815081 366.06012261 20.3125 362.25 C18.71245117 361.85421753 18.71245117 361.85421753 17.08007812 361.45043945 C-9.640368 354.62634252 -37.93509081 340.17045034 -52.49609375 315.78515625 C-59 303.74025974 -59 303.74025974 -59 300 C-61.71637439 302.46868068 -63.48798074 305.21423175 -65.4375 308.3125 C-85.82648774 339.213975 -115.96418146 356.76348944 -151.5 364.75 C-152.3760791 364.94883789 -153.2521582 365.14767578 -154.15478516 365.35253906 C-170.67286001 368.84991972 -187.17742054 369.37563109 -204 369.3125 C-205.03491577 369.31034485 -206.06983154 369.3081897 -207.1361084 369.30596924 C-259.62113319 369.13079639 -313.88176747 357.56643179 -352.17114258 319.26586914 C-376.97398058 293.47165198 -384.314018 256.34231357 -384.00390625 221.69140625 C-383.00305313 180.34593284 -370.72396624 143.23109587 -340.453125 114.1640625 C-323.42299763 98.30678265 -301.4751536 89.12405953 -279 84 C-278.28215332 83.83564453 -277.56430664 83.67128906 -276.82470703 83.50195312 C-229.51525576 73.10525221 -175.643464 78.30041622 -134 104 C-130.43046924 106.40597668 -127.18933474 109.11288045 -124 112 C-123.17113281 112.64324219 -122.34226562 113.28648437 -121.48828125 113.94921875 C-107.44346765 125.52461457 -99.05640943 145.36351001 -96 163 C-94.12064743 188.74842635 -100.23091289 211.12978034 -117 231 C-118.09828125 232.30710937 -118.09828125 232.30710937 -119.21875 233.640625 C-150.87402637 269.97731548 -203.04051147 281.01248094 -249 287 C-250.32 287 -251.64 287 -253 287 C-250.1405634 297.73129737 -246.6511578 307.58472188 -238 315 C-237.47277344 315.46792969 -236.94554687 315.93585938 -236.40234375 316.41796875 C-216.52012324 332.83874111 -187.47130352 333.8231352 -163.03271484 331.74804688 C-138.45571275 328.71844042 -115.75316423 315.64526201 -97 300 C-96.48308594 299.56961426 -95.96617187 299.13922852 -95.43359375 298.69580078 C-82.6233166 287.87207977 -73.4791461 274.9582922 -66 260 C-65.8944771 258.12510037 -65.85337317 256.24645284 -65.84178162 254.36862183 C-65.8319928 253.17106262 -65.82220398 251.97350342 -65.81211853 250.73965454 C-65.806214 249.40570108 -65.80040357 248.07174721 -65.79467773 246.73779297 C-65.78510153 245.33849802 -65.7750916 243.93920597 -65.76467896 242.53991699 C-65.73759588 238.73439024 -65.71660478 234.92885105 -65.69667697 231.123281 C-65.67483837 227.14874333 -65.6474393 223.17424417 -65.62062073 219.19973755 C-65.57066504 211.67039056 -65.5257369 204.14102222 -65.48259836 196.61163342 C-65.43325054 188.04098712 -65.37832332 179.47037945 -65.32291877 170.8997705 C-65.20905458 153.2665493 -65.10242314 135.63329111 -65 118 C-72.26 118 -79.52 118 -87 118 C-87 105.79 -87 93.58 -87 81 C-79.08 80.505 -79.08 80.505 -71 80 C-50.13515749 76.57521524 -32.97798064 65.54581037 -20 49 C-10.50298643 35.63511181 -4.83903738 21.56180958 -1.7265625 5.5703125 C-1 2 -1 2 0 0 Z M-246.70703125 120.26171875 C-266.12004534 139.77717619 -263.2886127 183.8352141 -263.24316406 208.59985352 C-263.09872298 222.10597527 -262.13009463 235.54405939 -261 249 C-247.9257583 247.82146677 -238.04096582 243.26208391 -229.4375 233.0625 C-212.21554512 209.55252904 -207.71606564 177.43915067 -211.82495117 149.0769043 C-213.67193322 138.17784455 -216.69852022 125.85819688 -225 118 C-232.63795438 113.1183509 -239.82228699 115.17299473 -246.70703125 120.26171875 Z " fill="#07538A" transform="translate(1461,533)"/>
<path d="M0 0 C40.26 0 80.52 0 122 0 C127.94 15.84 133.88 31.68 140 48 C143.63965677 57.66489734 147.2797605 67.32958138 150.92547607 76.9921875 C160.89124453 103.40603985 170.81957241 129.83378347 180.72563171 156.27008057 C191.44006853 184.8632793 202.20138899 213.43846995 213 242 C216.39376885 234.69057852 219.2584283 227.21429208 222.078125 219.66796875 C222.56648325 218.36642541 223.05503373 217.06495417 223.54376221 215.7635498 C224.84647224 212.29199474 226.14539076 208.81903319 227.44326782 205.34566879 C228.25457578 203.17525889 229.06694738 201.00524994 229.87963867 198.83535767 C237.16009529 179.39405491 244.3519962 159.92318422 251.41210938 140.40063477 C255.79481137 128.28481284 260.24686299 116.19657169 264.75 104.125 C265.23342865 102.82905411 265.23342865 102.82905411 265.72662354 101.50692749 C266.38506998 99.74199521 267.04352757 97.97706708 267.70199585 96.21214294 C268.03494659 95.3197139 268.36789734 94.42728485 268.7109375 93.5078125 C269.04864166 92.60277481 269.38634583 91.69773712 269.73428345 90.76527405 C274.3019948 78.51790463 278.83714103 66.2584536 283.375 54 C284.19107872 51.79573493 285.0071594 49.59147059 285.82324219 47.38720703 C286.21922607 46.31745636 286.61520996 45.24770569 287.02319336 44.14553833 C287.8094928 42.02178233 288.59610936 39.89814371 289.38305664 37.77462769 C291.28898265 32.63021672 293.19089066 27.48440461 295.08181572 22.3344574 C295.78092623 20.43106057 296.48117542 18.52808662 297.18179321 16.62524414 C298.07219881 14.20598362 298.96043678 11.78592397 299.84628296 9.36499023 C300.44371811 7.74379272 300.44371811 7.74379272 301.05322266 6.08984375 C301.40567047 5.12941162 301.75811829 4.16897949 302.12124634 3.17944336 C303 1 303 1 304 0 C306.20867831 -0.09432985 308.42041521 -0.11742431 310.63110352 -0.11352539 C311.32375305 -0.11367142 312.01640259 -0.11381744 312.7300415 -0.1139679 C315.02969446 -0.11326874 317.32926737 -0.10547628 319.62890625 -0.09765625 C321.21931412 -0.09579208 322.80972257 -0.09436817 324.40013123 -0.09336853 C328.5939593 -0.08954329 332.78775295 -0.07971295 336.98156738 -0.06866455 C342.00923705 -0.05665597 347.03691819 -0.05204822 352.06459808 -0.04621124 C359.70975602 -0.03650119 367.35483838 -0.01734471 375 0 C375 12.54 375 25.08 375 38 C368.4 38 361.8 38 355 38 C354.40372803 40.09903687 354.40372803 40.09903687 353.79541016 42.24047852 C351.95864586 48.352105 349.64889964 54.23316301 347.2734375 60.15234375 C346.81338318 61.3086731 346.35332886 62.46500244 345.8793335 63.65637207 C344.89360906 66.13243125 343.90643312 68.60784585 342.91656494 71.08224487 C341.35276954 74.99139129 339.79479095 78.90283936 338.23779297 82.81469727 C336.397434 87.43760899 334.55594139 92.06006502 332.71276283 96.68185329 C328.83773936 106.39930829 324.98606873 116.12590825 321.144104 125.85647583 C319.78139853 129.30771903 318.41759787 132.75852909 317.05386353 136.20936584 C316.04522094 138.76175968 315.03675535 141.31422338 314.02832031 143.86669922 C310.87640836 151.84413 307.72235785 159.82071538 304.56854248 167.7973938 C302.79561442 172.28156401 301.0228134 176.76578445 299.25 181.25 C298.54166728 183.04166691 297.83333395 184.83333358 297.125 186.625 C296.774375 187.511875 296.42375 188.39875 296.0625 189.3125 C258.87500012 283.3749997 258.87500012 283.3749997 257.81269836 286.06199646 C257.10370218 287.85534095 256.39470764 289.64868608 255.68571472 291.44203186 C253.92503638 295.89553317 252.16433042 300.34902356 250.40356445 304.80249023 C247.09499239 313.17087497 243.7867048 321.53937185 240.4793396 329.90823364 C238.92334162 333.84543886 237.36719403 337.78258494 235.81103516 341.71972656 C235.07186541 343.58997699 234.33276834 345.46025615 233.59375 347.33056641 C231.66095315 352.22207021 229.72632295 357.11283968 227.78948975 362.00274658 C227.08010486 363.79735049 226.37498505 365.59363893 225.67041016 367.39013672 C225.31124512 368.30166504 224.95208008 369.21319336 224.58203125 370.15234375 C224.29175049 370.89347412 224.00146973 371.63460449 223.70239258 372.39819336 C223 374 223 374 222 375 C219.79132169 375.09432985 217.57958479 375.11742431 215.36889648 375.11352539 C214.67624695 375.11367142 213.98359741 375.11381744 213.2699585 375.1139679 C210.97030554 375.11326874 208.67073263 375.10547628 206.37109375 375.09765625 C204.78068588 375.09579208 203.19027743 375.09436817 201.59986877 375.09336853 C197.4060407 375.08954329 193.21224705 375.07971295 189.01843262 375.06866455 C184.74211086 375.05845057 180.46578356 375.05387094 176.18945312 375.04882812 C167.79295292 375.03809069 159.39648074 375.02101419 151 375 C147.65563899 368.61513761 144.99316446 362.09930237 142.4296875 355.3671875 C141.99611435 354.2387442 141.5625412 353.1103009 141.11582947 351.94766235 C139.94278577 348.89335458 138.77311464 345.83778047 137.60467911 342.78170776 C135.62126421 337.59889173 133.62723074 332.42014108 131.63530159 327.24059296 C130.87711241 325.26877226 130.11937968 323.29677655 129.36167908 321.32476807 C124.89260903 309.69791198 120.36345192 298.09502401 115.8125 286.5 C109.63145102 270.74270957 103.48795602 254.97133446 97.375 239.1875 C91.60279832 224.28400909 85.8169824 209.38607213 80 194.5 C73.73390626 178.46406088 67.50314752 162.41460835 61.28375244 146.36050415 C56.15711542 133.12806402 51.01622225 119.9013773 45.85058594 106.68411255 C42.89647278 99.12427011 39.94709917 91.56257921 37 84 C36.62089478 83.02720093 36.24178955 82.05440186 35.85119629 81.05212402 C33.44969799 74.88768094 31.05266661 68.72152542 28.66070557 62.55337524 C27.89117671 60.57047375 27.12047838 58.58802568 26.34857178 56.60604858 C25.28127429 53.86489297 24.21821856 51.12212994 23.15625 48.37890625 C22.83524323 47.55707855 22.51423645 46.73525085 22.1835022 45.88851929 C20 40.22834478 20 40.22834478 20 38 C13.4 38 6.8 38 0 38 C0 25.46 0 12.92 0 0 Z " fill="#07538A" transform="translate(77,32)"/>
<path d="M0 0 C40.26 0 80.52 0 122 0 C130.7847634 22.84038485 139.56021558 45.67260318 148.12612915 68.59414673 C149.82414965 73.1365686 151.52460765 77.678076 153.2253418 82.21948242 C155.02017686 87.01247454 156.81485715 91.80552428 158.60868835 96.59889221 C162.72448907 107.59664912 166.84650449 118.59206019 170.97265625 129.5859375 C172.11907711 132.64069967 173.26547502 135.69547046 174.41186523 138.75024414 C174.69374726 139.50137136 174.97562929 140.25249857 175.2660532 141.02638721 C187.89027837 174.66705284 200.46348966 208.32655093 213 242 C215.23366529 238.64950206 216.5130769 235.23222335 217.88671875 231.48046875 C218.17595718 230.70030396 218.46519562 229.92013916 218.76319885 229.11633301 C219.74158883 226.47471374 220.71445708 223.83109309 221.6875 221.1875 C222.39186058 219.28281397 223.09662483 217.37827717 223.80175781 215.47387695 C225.35645275 211.27361137 226.90905963 207.07258125 228.46044922 202.87109375 C231.12374724 195.6613 233.79736528 188.45535046 236.47265625 181.25 C237.42579406 178.68270332 238.37891192 176.11539924 239.33203125 173.5480957 C239.5710573 172.90427854 239.81008335 172.26046137 240.05635262 171.59713459 C242.76980181 164.28806708 245.48084263 156.97810678 248.19140625 149.66796875 C248.4362891 149.00754263 248.68117195 148.34711651 248.93347549 147.66667747 C253.61112572 135.0511012 258.2859635 122.43448361 262.95892334 109.81716919 C264.18229449 106.51405494 265.40583988 103.21100526 266.62939453 99.90795898 C270.42072823 89.67199406 274.20959145 79.43512797 277.99183655 69.19580078 C279.77375679 64.37231415 281.55694745 59.5492976 283.34024048 54.72631836 C284.17548705 52.46629774 285.01013518 50.20605583 285.84408569 47.94555664 C286.23480255 46.88651123 286.62551941 45.82746582 287.02807617 44.73632812 C287.36514084 43.82210083 287.70220551 42.90787354 288.04948425 41.96594238 C293.25315944 27.92718496 298.62342018 13.97910754 304 0 C327.43 0 350.86 0 375 0 C375 12.54 375 25.08 375 38 C368.4 38 361.8 38 355 38 C354.67 39.65 354.34 41.3 354 43 C353.25667643 45.12270319 352.46707172 47.22940688 351.6484375 49.32421875 C351.40213089 49.9572995 351.15582428 50.59038025 350.90205383 51.24264526 C350.06397359 53.39262523 349.21959131 55.54007018 348.375 57.6875 C347.7625852 59.25309894 347.15036881 60.8187755 346.53833008 62.38452148 C338.41657757 83.12945427 330.1728521 103.82671939 321.94968796 124.53161621 C317.33044385 136.16256523 312.72390105 147.79849436 308.125 159.4375 C307.44034852 161.17000334 306.75569683 162.90250659 306.07104492 164.63500977 C304.72334782 168.04552463 303.37579932 171.45609818 302.02832031 174.86669922 C298.87640836 182.84413 295.72235785 190.82071538 292.56854248 198.7973938 C290.79561442 203.28156401 289.0228134 207.76578445 287.25 212.25 C286.54166728 214.04166691 285.83333395 215.83333358 285.125 217.625 C284.774375 218.511875 284.42375 219.39875 284.0625 220.3125 C273.96875 245.84375 273.96875 245.84375 263.875 271.375 C263.52441528 272.26177429 263.17383057 273.14854858 262.81262207 274.06219482 C262.10388511 275.85488004 261.39514487 277.64756396 260.68640137 279.44024658 C258.92171675 283.9038189 257.15708803 288.3674133 255.39257812 292.83105469 C252.13213352 301.07876078 248.87119176 309.32626907 245.60827637 317.57299805 C244.10053299 321.38378512 242.59310305 325.19469615 241.08569336 329.00561523 C240.38093269 330.7870892 239.6760259 332.56850537 238.97094727 334.34985352 C233.61296785 347.88669631 228.30522873 361.44219325 223 375 C199.24 375 175.48 375 151 375 C145.36090226 361.46616541 145.36090226 361.46616541 142.8984375 355.23828125 C142.62456711 354.54592377 142.35069672 353.85356628 142.06852722 353.14022827 C141.1692457 350.86488401 140.27195513 348.58876226 139.375 346.3125 C139.05763885 345.50809479 138.74027771 344.70368958 138.41329956 343.87490845 C131.91633533 327.40227002 125.51330205 310.89344908 119.12060547 294.38012695 C114.10032449 281.41224214 109.06177477 268.45174261 104 255.5 C97.73305404 239.46245283 91.50206781 223.41114897 85.28173828 207.35546875 C79.55184047 192.56685342 73.80117821 177.78655689 68.02874756 163.01449585 C62.5360816 148.9567179 57.07615739 134.88641988 51.625 120.8125 C45.13244562 104.05139932 38.61315546 87.30098244 32.0625 70.5625 C31.68127991 69.58809967 31.30005981 68.61369934 30.9072876 67.60977173 C29.82544108 64.84510845 28.742957 62.08069592 27.66015625 59.31640625 C27.19107094 58.11803131 27.19107094 58.11803131 26.71250916 56.89544678 C26.41300858 56.13145569 26.113508 55.3674646 25.80493164 54.58032227 C25.51482208 53.83944366 25.22471252 53.09856506 24.92581177 52.3352356 C24.25476453 50.64260924 23.57253715 48.95440144 22.8835144 47.26901245 C22.33293869 45.91949997 22.33293869 45.91949997 21.77124023 44.54272461 C21.43301743 43.72186874 21.09479462 42.90101288 20.74632263 42.05528259 C20 40 20 40 20 38 C13.4 38 6.8 38 0 38 C0 25.46 0 12.92 0 0 Z " fill="#07538A" transform="translate(18,525)"/>
<path d="M0 0 C16.88924991 15.96162065 24.71069283 38.94183918 25.80626297 61.71746445 C25.8687652 65.76606447 25.87324447 69.81008132 25.85205078 73.85888672 C25.85148501 75.39787794 25.85180646 76.93686969 25.85293579 78.4758606 C25.85350383 82.6071799 25.84183972 86.73838034 25.82778788 90.8696723 C25.81518775 95.20445987 25.81410277 99.5392509 25.81173706 103.87405396 C25.80554933 112.06178531 25.7891756 120.24946251 25.76903808 128.43717015 C25.74659424 137.76741848 25.73566442 147.09766956 25.72564721 156.42793822 C25.70480663 175.60172982 25.66927561 194.77546792 25.625 213.94921875 C32.555 213.94921875 39.485 213.94921875 46.625 213.94921875 C46.625 225.49921875 46.625 237.04921875 46.625 248.94921875 C4.055 248.94921875 -38.515 248.94921875 -82.375 248.94921875 C-82.375 242.67921875 -82.375 236.40921875 -82.375 229.94921875 C-84.47101563 231.38136719 -86.56703125 232.81351562 -88.7265625 234.2890625 C-90.77028269 235.67496535 -92.8164056 237.05724843 -94.86279297 238.43920898 C-96.27940727 239.39866822 -97.69350956 240.36184761 -99.10498047 241.32885742 C-101.13894751 242.72138666 -103.18169169 244.10011136 -105.2265625 245.4765625 C-105.85180817 245.9088768 -106.47705383 246.3411911 -107.12124634 246.78660583 C-121.52074074 256.39170528 -148.54321809 251.71238873 -164.84960938 248.49267578 C-194.09684369 242.19875239 -222.47929137 229.74065697 -239.375 203.94921875 C-251.7845509 182.92396388 -255.17836086 156.23121822 -249.4765625 132.46484375 C-245.9026703 121.05880483 -240.98435076 111.23934979 -233.375 101.94921875 C-232.85679687 101.26859375 -232.33859375 100.58796875 -231.8046875 99.88671875 C-203.5386355 64.6606841 -148.34800291 48.86797968 -105.625 44.13671875 C-94.4061284 42.94921875 -94.4061284 42.94921875 -90.375 42.94921875 C-92.38532306 23.77956361 -92.38532306 23.77956361 -102.375 7.94921875 C-114.64166007 0.09943093 -127.35361379 0.69009662 -141.375 0.94921875 C-141.58181396 1.54984131 -141.78862793 2.15046387 -142.00170898 2.76928711 C-142.93564116 5.47614304 -143.87400895 8.18144023 -144.8125 10.88671875 C-145.30073242 12.30500977 -145.30073242 12.30500977 -145.79882812 13.75195312 C-146.11142578 14.65107422 -146.42402344 15.55019531 -146.74609375 16.4765625 C-147.03411865 17.30921631 -147.32214355 18.14187012 -147.61889648 18.99975586 C-148.375 20.94921875 -148.375 20.94921875 -149.375 21.94921875 C-151.09365409 22.04281065 -152.81615744 22.06666486 -154.53735352 22.06274414 C-155.63841934 22.06266861 -156.73948517 22.06259308 -157.87391663 22.06251526 C-159.0718132 22.05735397 -160.26970978 22.05219269 -161.50390625 22.046875 C-162.72327377 22.04546005 -163.9426413 22.0440451 -165.19895935 22.04258728 C-169.1118307 22.03696842 -173.02464581 22.02441271 -176.9375 22.01171875 C-179.58268147 22.00670618 -182.22786383 22.00214285 -184.87304688 21.99804688 C-191.37373726 21.98784171 -197.87430533 21.96826996 -204.375 21.94921875 C-204.375 5.77921875 -204.375 -10.39078125 -204.375 -27.05078125 C-182.06931518 -32.92069831 -182.06931518 -32.92069831 -173.75 -34.23828125 C-172.75186279 -34.39844727 -171.75372559 -34.55861328 -170.7253418 -34.72363281 C-114.13198982 -43.39971925 -45.4119979 -39.21266266 0 0 Z M-115.19921875 93.578125 C-133.29783347 113.30139096 -137.8082591 141.78476859 -137.52734375 167.69140625 C-136.93718132 180.31180293 -134.54637312 193.62388973 -125.375 202.94921875 C-120.96629525 206.51767624 -116.01601252 208.19776911 -110.375 207.94921875 C-102.94173562 206.59642159 -98.24442452 201.97316188 -93.97771931 195.98973942 C-90.26181166 189.88493488 -89.67879131 184.98055223 -89.80737305 177.92163086 C-89.80627785 176.32495071 -89.80627785 176.32495071 -89.80516052 174.6960144 C-89.80862169 171.20566421 -89.84741522 167.71667726 -89.88671875 164.2265625 C-89.89605205 161.79562611 -89.90316572 159.36468027 -89.90815735 156.93373108 C-89.92718608 150.55654628 -89.97625235 144.179937 -90.03167725 137.80297852 C-90.08295821 131.28735131 -90.10569033 124.77163051 -90.13085938 118.25585938 C-90.18437422 105.4867346 -90.26866743 92.71800739 -90.375 79.94921875 C-99.23892414 79.94921875 -109.11199411 87.6702294 -115.19921875 93.578125 Z " fill="#07538A" transform="translate(640.375,158.05078125)"/>
<path d="M0 0 C12.21 0 24.42 0 37 0 C37.63091553 3.25069336 38.26183105 6.50138672 38.91186523 9.85058594 C40.99438669 20.57961609 43.07808584 31.30841728 45.16236782 42.03710556 C46.42627748 48.5431816 47.68978785 55.04933465 48.95239258 61.55566406 C50.17042621 67.83223615 51.38949968 74.10860544 52.60930061 80.38483429 C53.07496399 82.78178941 53.54024985 85.17881791 54.00515556 87.5759201 C54.65535727 90.92808589 55.30688931 94.27999052 55.95874023 97.63183594 C56.15151047 98.62733459 56.3442807 99.62283325 56.54289246 100.64849854 C56.72096436 101.56272583 56.89903625 102.47695312 57.08250427 103.41888428 C57.2364437 104.21162624 57.39038313 105.00436821 57.54898739 105.82113266 C57.97782401 107.89286654 58.48687909 109.94751637 59 112 C65.93 75.04 72.86 38.08 80 0 C91.88 0 103.76 0 116 0 C116 54.78 116 109.56 116 166 C107.42 166 98.84 166 90 166 C89.67 135.31 89.34 104.62 89 73 C87.64003906 79.62964844 86.28007813 86.25929688 84.87890625 93.08984375 C84.01799617 97.27808172 83.15686358 101.46627142 82.29492188 105.65429688 C80.92545872 112.3083896 79.55684332 118.96264912 78.19311523 125.61791992 C77.09416539 130.98075719 75.99154864 136.3428283 74.88633537 141.70437813 C74.46436552 143.75472465 74.04373997 145.80534829 73.62445259 147.85624504 C73.03903159 150.71861936 72.44892968 153.57998986 71.85766602 156.44116211 C71.68359726 157.29783478 71.5095285 158.15450745 71.33018494 159.03713989 C70.11405216 164.88594784 70.11405216 164.88594784 69 166 C67.5112814 166.08669432 66.018555 166.10703494 64.52734375 166.09765625 C63.62822266 166.09443359 62.72910156 166.09121094 61.80273438 166.08789062 C60.85720703 166.07951172 59.91167969 166.07113281 58.9375 166.0625 C57.98810547 166.05798828 57.03871094 166.05347656 56.06054688 166.04882812 C53.70696935 166.0370011 51.35351523 166.02052025 49 166 C47.04586589 161.59089206 45.99540782 157.1282738 44.93701172 152.44604492 C44.73852694 151.58308209 44.54004215 150.72011927 44.33554268 149.83100605 C43.6964829 147.0483431 43.06297614 144.26445012 42.4296875 141.48046875 C42.03495321 139.7579319 41.63985429 138.03547856 41.24438477 136.31311035 C39.78350556 129.93891775 38.32967787 123.56311069 36.875 117.1875 C33.61625 102.935625 30.3575 88.68375 27 74 C26.67 104.36 26.34 134.72 26 166 C17.42 166 8.84 166 0 166 C0 111.22 0 56.44 0 0 Z " fill="#07538A" transform="translate(1132,1017)"/>
<path d="M0 0 C58.12373096 0 58.12373096 0 68.21484375 8.1640625 C77.04653322 17.24698165 79.128034 28.69441782 79.203125 40.91796875 C79.20882507 41.65646561 79.21452515 42.39496246 79.22039795 43.15583801 C79.22979025 44.71138096 79.23635878 46.26694329 79.24023438 47.82250977 C79.24990272 50.16394088 79.28096504 52.50447863 79.3125 54.84570312 C79.39260297 65.92977625 78.96856659 76.67399651 72.4375 86.125 C71.53837891 87.45917969 71.53837891 87.45917969 70.62109375 88.8203125 C69 91 69 91 67 93 C67.47287264 101.33198948 70.38893524 109.83173041 72.4765625 117.875 C72.81044606 119.17477355 73.14388282 120.47466194 73.47689819 121.7746582 C74.52199814 125.85087603 75.57312366 129.92552643 76.625 134 C77.85202795 138.75405486 79.07653554 143.5087338 80.29514694 148.26495361 C80.78190959 150.15965758 81.27307877 152.05322772 81.76431274 153.94677734 C82.05816864 155.09227051 82.35202454 156.23776367 82.65478516 157.41796875 C83.04544662 158.93040161 83.04544662 158.93040161 83.44400024 160.47338867 C84 163 84 163 84 166 C74.76 166 65.52 166 56 166 C54.34511852 159.2598858 52.69079579 152.51963923 51.0378418 145.77905273 C50.47663734 143.49121405 49.91512042 141.20345198 49.35327148 138.91577148 C43.60820725 115.52186992 43.60820725 115.52186992 41 104 C36.05 103.67 31.1 103.34 26 103 C26 123.79 26 144.58 26 166 C17.42 166 8.84 166 0 166 C0 111.22 0 56.44 0 0 Z M26 26 C26 42.83 26 59.66 26 77 C38.08855099 78.00863454 38.08855099 78.00863454 48.7109375 73.4140625 C54.87786755 66.5522671 54.21391557 60.22986399 54.25 51.3125 C54.270625 50.05759766 54.29125 48.80269531 54.3125 47.50976562 C54.34125409 40.68426449 54.30832873 35.062872 51 29 C44.11351556 24.28501415 44.11351556 24.28501415 26 26 Z " fill="#07538A" transform="translate(788,1017)"/>
<path d="M0 0 C1.47583954 0.00025104 2.95168496 0.00581025 4.42749023 0.01586914 C5.11452026 0.01687622 5.80155029 0.0178833 6.50939941 0.0189209 C9.08500089 0.02416768 11.66050868 0.0380931 14.23608398 0.05102539 C17.3466769 0.06297508 20.45727399 0.07367752 23.56787109 0.08447266 C25.11323554 0.0899919 26.65859993 0.09552934 28.20396423 0.10108948 C29.34893875 0.10519333 30.49391327 0.10929718 31.67358398 0.11352539 C37.10914194 30.72494897 42.29036867 61.37838844 47.40831888 92.04427838 C48.55618773 98.92194787 49.70828035 105.79889267 50.86384052 112.67527401 C51.88093764 118.72947023 52.89269933 124.784547 53.9025135 130.83996201 C54.32791395 133.38633009 54.75492944 135.93242893 55.18362236 138.47824478 C55.77656941 142.00192153 56.36340859 145.52656346 56.94873047 149.05151367 C57.12474792 150.08918884 57.30076538 151.12686401 57.4821167 152.19598389 C57.71936714 153.636194 57.71936714 153.636194 57.96141052 155.10549927 C58.16900324 156.34665591 58.16900324 156.34665591 58.38078976 157.61288643 C58.71050766 160.42887582 58.67358398 163.27829874 58.67358398 166.11352539 C49.76358398 166.11352539 40.85358398 166.11352539 31.67358398 166.11352539 C29.69358398 153.57352539 27.71358398 141.03352539 25.67358398 128.11352539 C17.75358398 127.78352539 9.83358398 127.45352539 1.67358398 127.11352539 C-0.30641602 139.98352539 -2.28641602 152.85352539 -4.32641602 166.11352539 C-13.23641602 166.11352539 -22.14641602 166.11352539 -31.32641602 166.11352539 C-30.20137448 153.73806852 -30.20137448 153.73806852 -29.22583008 147.95101929 C-29.11950886 147.31345912 -29.01318764 146.67589895 -28.90364456 146.01901877 C-28.55368766 143.92663308 -28.1979113 141.83528383 -27.84204102 139.74389648 C-27.58701759 138.22673219 -27.33234825 136.70950835 -27.07800293 135.19223022 C-26.39180602 131.10550824 -25.7004098 127.01968235 -25.00779724 122.93404341 C-24.28238117 118.65084089 -23.5610762 114.36694572 -22.83911133 110.0831604 C-21.62822961 102.90250823 -20.41387146 95.72245038 -19.19750977 88.54272461 C-17.79004387 80.23466967 -16.38853065 71.92562655 -14.99005508 63.61605394 C-13.78791024 56.47397037 -12.58263081 49.33242106 -11.37469101 42.19131529 C-10.65368917 37.92889153 -9.93377788 33.66629128 -9.2166748 29.40320969 C-8.54398692 25.40525865 -7.867378 21.40799113 -7.18766785 17.41122818 C-6.93834059 15.94122553 -6.69040376 14.47098631 -6.44392395 13.00050354 C-6.10867191 11.00177286 -5.76799881 9.00395366 -5.42700195 7.00619507 C-5.23748962 5.88575491 -5.04797729 4.76531475 -4.85272217 3.61092186 C-4.06141056 -0.14396263 -4.00356311 0.13663536 0 0 Z M13.67358398 44.11352539 C12.21288956 50.37718782 11.06780117 56.60268691 10.16577148 62.96899414 C10.03542511 63.87426346 9.90507874 64.77953278 9.77078247 65.7122345 C9.49852373 67.61031631 9.22802751 69.50865171 8.95922852 71.40722656 C8.5481168 74.30431761 8.12876391 77.20013643 7.70874023 80.09594727 C7.44392095 81.94939204 7.17958137 83.80290543 6.91577148 85.65649414 C6.79080292 86.51599167 6.66583435 87.3754892 6.53707886 88.2610321 C6.42340973 89.07240128 6.3097406 89.88377045 6.19262695 90.71972656 C6.09207001 91.42538254 5.99151306 92.13103851 5.88790894 92.858078 C5.62750131 95.59847614 5.67358398 98.36078238 5.67358398 101.11352539 C11.28358398 101.11352539 16.89358398 101.11352539 22.67358398 101.11352539 C21.69511381 94.12091323 20.71651307 87.12831937 19.73779297 80.13574219 C19.40507504 77.75846853 19.07239237 75.38118994 18.73974609 73.00390625 C18.2607543 69.58079746 17.78163441 66.15770661 17.30249023 62.73461914 C17.15453506 61.67705917 17.0065799 60.61949921 16.85414124 59.52989197 C16.13456943 54.39003792 15.41110302 49.25083611 14.67358398 44.11352539 C14.34358398 44.11352539 14.01358398 44.11352539 13.67358398 44.11352539 Z " fill="#07538A" transform="translate(1040.326416015625,1016.886474609375)"/>
<path d="M0 0 C6.49562041 4.959619 12.56677254 10.62892484 16.1875 18.0625 C16.51105469 18.71347656 16.83460938 19.36445312 17.16796875 20.03515625 C18.94807788 24.23888813 19.11837563 27.95736193 19.09765625 32.515625 C19.09282227 34.39121094 19.09282227 34.39121094 19.08789062 36.3046875 C19.07532227 38.25761719 19.07532227 38.25761719 19.0625 40.25 C19.05798828 41.56742188 19.05347656 42.88484375 19.04882812 44.2421875 C19.03704326 47.49481104 19.0191079 50.74741124 19 54 C10.42 54 1.84 54 -7 54 C-7.3125 43.875 -7.3125 43.875 -7.38793945 40.71826172 C-7.64645354 34.17804402 -8.65935165 29.69529204 -13.0625 24.625 C-17.36814902 22.24315161 -21.19041773 22.10734153 -26 23 C-29.28595249 24.63961638 -31.38150635 26.85286499 -33.13908386 30.11268616 C-34.33142762 34.11153166 -34.28687109 37.85766205 -34.2746582 42.00952148 C-34.27976913 42.90769592 -34.28488007 43.80587036 -34.29014587 44.73126221 C-34.30402408 47.69460753 -34.30308648 50.65771983 -34.30078125 53.62109375 C-34.30466904 55.68465766 -34.30900388 57.74822076 -34.31376648 59.81178284 C-34.3212248 64.13504634 -34.32094012 68.45822817 -34.31567383 72.78149414 C-34.30987854 78.3175226 -34.32681365 83.85321656 -34.3500185 89.38918972 C-34.36476048 93.65031382 -34.36562692 97.91135744 -34.36250877 102.17250252 C-34.36302171 104.2134168 -34.36825427 106.25433562 -34.37832069 108.29522514 C-34.39067715 111.1507317 -34.38389813 114.0055876 -34.37231445 116.86108398 C-34.37995819 117.70127579 -34.38760193 118.54146759 -34.39547729 119.40711975 C-34.34069174 125.52697744 -33.04264105 129.64786789 -28.9375 134.375 C-24.62809059 136.75892861 -20.81343438 136.88567193 -16 136 C-12.55438754 134.34413307 -10.50759663 132.09328505 -8.8828125 128.59375 C-7.58248439 123.30037894 -7.52910843 118.05677426 -7.375 112.625 C-7.189375 106.870625 -7.189375 106.870625 -7 101 C1.58 101 10.16 101 19 101 C19.09254409 105.37527876 19.17194885 109.74707561 19.21972656 114.12255859 C19.23966981 115.60640048 19.2668349 117.09016555 19.30175781 118.57373047 C19.6218832 132.53684683 17.11346203 142.56138733 7.375 153.0625 C-1.46799321 161.70677426 -10.90583266 163.29685219 -22.71411133 163.31689453 C-33.99774317 163.14278763 -41.872617 158.92689603 -49.91015625 151.15234375 C-58.29650627 142.19622048 -60.14682043 133.0359577 -60.16113281 121.13598633 C-60.16609772 120.14670135 -60.17106262 119.15741638 -60.17617798 118.13815308 C-60.19076699 114.86943868 -60.19759674 111.60077284 -60.203125 108.33203125 C-60.20887981 106.05384826 -60.2146375 103.77566528 -60.22039795 101.4974823 C-60.23089913 96.72024307 -60.23674736 91.94302063 -60.24023438 87.16577148 C-60.24571251 81.06069975 -60.26972992 74.95585178 -60.29820633 68.85085011 C-60.31688214 64.14350244 -60.32204098 59.4362081 -60.32357025 54.72882652 C-60.32658691 52.47909003 -60.33458192 50.22935426 -60.34775543 47.97965431 C-60.36491665 44.8232614 -60.36291084 41.66740768 -60.35644531 38.51098633 C-60.3656601 37.59166824 -60.37487488 36.67235016 -60.3843689 35.72517395 C-60.31183067 24.3520202 -56.78343931 15.02977098 -48.890625 6.80078125 C-36.33067343 -4.91462185 -15.46859478 -9.35079042 0 0 Z " fill="#07538A" transform="translate(736,1020)"/>
<path d="M0 0 C6.49562041 4.959619 12.56677254 10.62892484 16.1875 18.0625 C16.51105469 18.71347656 16.83460938 19.36445312 17.16796875 20.03515625 C18.94807788 24.23888813 19.11837563 27.95736193 19.09765625 32.515625 C19.09282227 34.39121094 19.09282227 34.39121094 19.08789062 36.3046875 C19.07532227 38.25761719 19.07532227 38.25761719 19.0625 40.25 C19.05798828 41.56742188 19.05347656 42.88484375 19.04882812 44.2421875 C19.03704326 47.49481104 19.0191079 50.74741124 19 54 C10.42 54 1.84 54 -7 54 C-7.3125 43.875 -7.3125 43.875 -7.38793945 40.71826172 C-7.64645354 34.17804402 -8.65935165 29.69529204 -13.0625 24.625 C-17.36814902 22.24315161 -21.19041773 22.10734153 -26 23 C-29.28595249 24.63961638 -31.38150635 26.85286499 -33.13908386 30.11268616 C-34.33142762 34.11153166 -34.28687109 37.85766205 -34.2746582 42.00952148 C-34.27976913 42.90769592 -34.28488007 43.80587036 -34.29014587 44.73126221 C-34.30402408 47.69460753 -34.30308648 50.65771983 -34.30078125 53.62109375 C-34.30466904 55.68465766 -34.30900388 57.74822076 -34.31376648 59.81178284 C-34.3212248 64.13504634 -34.32094012 68.45822817 -34.31567383 72.78149414 C-34.30987854 78.3175226 -34.32681365 83.85321656 -34.3500185 89.38918972 C-34.36476048 93.65031382 -34.36562692 97.91135744 -34.36250877 102.17250252 C-34.36302171 104.2134168 -34.36825427 106.25433562 -34.37832069 108.29522514 C-34.39067715 111.1507317 -34.38389813 114.0055876 -34.37231445 116.86108398 C-34.37995819 117.70127579 -34.38760193 118.54146759 -34.39547729 119.40711975 C-34.34069174 125.52697744 -33.04264105 129.64786789 -28.9375 134.375 C-24.62809059 136.75892861 -20.81343438 136.88567193 -16 136 C-12.55438754 134.34413307 -10.50759663 132.09328505 -8.8828125 128.59375 C-7.58248439 123.30037894 -7.52910843 118.05677426 -7.375 112.625 C-7.189375 106.870625 -7.189375 106.870625 -7 101 C1.58 101 10.16 101 19 101 C19.09254409 105.37527876 19.17194885 109.74707561 19.21972656 114.12255859 C19.23966981 115.60640048 19.2668349 117.09016555 19.30175781 118.57373047 C19.6218832 132.53684683 17.11346203 142.56138733 7.375 153.0625 C-1.46799321 161.70677426 -10.90583266 163.29685219 -22.71411133 163.31689453 C-33.99774317 163.14278763 -41.872617 158.92689603 -49.91015625 151.15234375 C-58.29650627 142.19622048 -60.14682043 133.0359577 -60.16113281 121.13598633 C-60.16609772 120.14670135 -60.17106262 119.15741638 -60.17617798 118.13815308 C-60.19076699 114.86943868 -60.19759674 111.60077284 -60.203125 108.33203125 C-60.20887981 106.05384826 -60.2146375 103.77566528 -60.22039795 101.4974823 C-60.23089913 96.72024307 -60.23674736 91.94302063 -60.24023438 87.16577148 C-60.24571251 81.06069975 -60.26972992 74.95585178 -60.29820633 68.85085011 C-60.31688214 64.14350244 -60.32204098 59.4362081 -60.32357025 54.72882652 C-60.32658691 52.47909003 -60.33458192 50.22935426 -60.34775543 47.97965431 C-60.36491665 44.8232614 -60.36291084 41.66740768 -60.35644531 38.51098633 C-60.3656601 37.59166824 -60.37487488 36.67235016 -60.3843689 35.72517395 C-60.31183067 24.3520202 -56.78343931 15.02977098 -48.890625 6.80078125 C-36.33067343 -4.91462185 -15.46859478 -9.35079042 0 0 Z " fill="#07538A" transform="translate(469,1020)"/>
<path d="M0 0 C23.43 0 46.86 0 71 0 C71 8.58 71 17.16 71 26 C56.15 26 41.3 26 26 26 C26 40.19 26 54.38 26 69 C36.89 69 47.78 69 59 69 C59 77.58 59 86.16 59 95 C48.11 95 37.22 95 26 95 C26 109.85 26 124.7 26 140 C40.85 140 55.7 140 71 140 C71 148.58 71 157.16 71 166 C47.57 166 24.14 166 0 166 C0 111.22 0 56.44 0 0 Z " fill="#07538A" transform="translate(905,1017)"/>
<path d="M0 0 C23.43 0 46.86 0 71 0 C71 8.58 71 17.16 71 26 C56.15 26 41.3 26 26 26 C26 40.19 26 54.38 26 69 C36.89 69 47.78 69 59 69 C59 77.58 59 86.16 59 95 C48.11 95 37.22 95 26 95 C26 109.85 26 124.7 26 140 C40.85 140 55.7 140 71 140 C71 148.58 71 157.16 71 166 C47.57 166 24.14 166 0 166 C0 111.22 0 56.44 0 0 Z " fill="#07538A" transform="translate(521,1017)"/>
<path d="M0 0 C8.58 0 17.16 0 26 0 C26 54.78 26 109.56 26 166 C17.42 166 8.84 166 0 166 C0 111.22 0 56.44 0 0 Z " fill="#07538A" transform="translate(350,1017)"/>
</svg>
